<svg xmlns="http://www.w3.org/2000/svg" width="15.383" height="8.562" viewBox="0 0 15.383 8.562"><g transform="translate(-573.25 -869.25)"><path d="M14.7,117.518a.619.619,0,0,0-.877,0L7.442,123.9l-6.383-6.383a.62.62,0,0,0-.877.877L7,125.217a.62.62,0,0,0,.877,0l6.822-6.822A.62.62,0,0,0,14.7,117.518Z" transform="translate(573.5 752.164)"/><path d="M.621,117.086a.864.864,0,0,1,.615.255l6.206,6.206,6.206-6.206a.87.87,0,0,1,1.23,1.23l-6.822,6.822a.87.87,0,0,1-1.23,0L.005,118.572a.87.87,0,0,1,.615-1.486Zm6.822,7.169-6.56-6.56a.37.37,0,1,0-.523.523l6.822,6.822a.37.37,0,0,0,.523,0l6.822-6.822a.37.37,0,1,0-.523-.523Z" transform="translate(573.5 752.164)"/></g></svg>