<svg xmlns="http://www.w3.org/2000/svg" width="10.655" height="10.917" viewBox="0 0 10.655 10.917"><g transform="translate(-1.837)"><g transform="translate(0 0)"><path d="M12.339,135.185a.539.539,0,0,1-.564.312c-1.721-.007-1.443,0-3.164,0H8.433v3.7a.435.435,0,0,0,.5.5c.243,0,.485,0,.728,0a.421.421,0,1,1,0,.839H4.689a.421.421,0,1,1,0-.839c.266,0,.532,0,.8,0a.411.411,0,0,0,.425-.412c0-1.255,0-2.509,0-3.786h-3.4a.746.746,0,0,1-.206-.022.412.412,0,0,1-.3-.436.426.426,0,0,1,.387-.379c.051,0,.1,0,.154,0,4.408,0,4.817,0,9.225,0a.54.54,0,0,1,.564.311v.224Z" transform="translate(-0.008 -129.615)"/><path d="M27.459.846H24.228c0,.411,0,.816,0,1.221a.423.423,0,0,1-.2.389.413.413,0,0,1-.632-.339c-.01-.574-.007-1.148,0-1.721a.411.411,0,0,1,.4-.4c.042,0,.084,0,.126,0h9.6c.375,0,.523.15.523.526,0,.522,0,1.045,0,1.568a.418.418,0,0,1-.827.095.694.694,0,0,1-.011-.153c0-.392,0-.783,0-1.185H29.976V4.191H27.46V.846Z" transform="translate(-21.548 0.001)"/></g></g></svg>