<svg xmlns="http://www.w3.org/2000/svg" width="19.605" height="19.535" viewBox="0 0 19.605 19.535"><g transform="translate(-1031.251 -2431.75)"><path d="M18.984,9.713a.981.981,0,0,1-.744.721,1.651,1.651,0,0,1-.313.021H10.413v.227c0,2.4-.009,4.795.006,7.191a1.064,1.064,0,0,1-.749,1.17H9.3a.987.987,0,0,1-.721-.745,1.545,1.545,0,0,1-.021-.3q0-3.652,0-7.3v-.244H.967A.929.929,0,1,1,.911,8.6c.841-.006,1.681,0,2.522,0H8.556V8.372c0-2.4.009-4.795-.007-7.192A1.064,1.064,0,0,1,9.3.01H9.67a.979.979,0,0,1,.72.745,1.656,1.656,0,0,1,.021.314q0,3.642,0,7.284V8.6h.226c2.393,0,4.785.009,7.178-.007a1.061,1.061,0,0,1,1.168.751v.372Z" transform="translate(1031.517 2431.99)" fill="#c7112b"/><path d="M9.711,19.295H9.256l-.041-.015a1.22,1.22,0,0,1-.881-.932A1.782,1.782,0,0,1,8.308,18q0-3.649,0-7.3H.967A1.179,1.179,0,1,1,.91,8.35c.3,0,.62,0,1.011,0l1.513,0H8.306q0-.95,0-1.9c0-1.726,0-3.51-.008-5.265a1.308,1.308,0,0,1,.92-1.409L9.258-.24h.455l.04.014a1.211,1.211,0,0,1,.882.932,1.883,1.883,0,0,1,.026.362q0,3.639,0,7.279l3.817,0c1.332,0,2.361,0,3.335-.01h.019a1.3,1.3,0,0,1,1.387.922l.013.038v.162h.105l-.119.334a1.215,1.215,0,0,1-.931.882,1.879,1.879,0,0,1-.361.026H10.663q0,.965,0,1.929c0,1.717,0,3.492.008,5.237a1.307,1.307,0,0,1-.919,1.409Zm-.367-.5h.284c.387-.142.545-.412.541-.919-.012-1.747-.01-3.523-.008-5.241q0-.976,0-1.952v-.477h7.764a1.444,1.444,0,0,0,.266-.017.708.708,0,0,0,.541-.519V9.384a.811.811,0,0,0-.9-.543h-.016c-.976.007-2.005.01-3.339.01l-3.841,0h-.476V8.353q0-3.642,0-7.284A1.449,1.449,0,0,0,10.144.8.714.714,0,0,0,9.625.26H9.341C8.953.4,8.8.672,8.8,1.179c.012,1.757.01,3.542.008,5.269q0,.962,0,1.924v.476H3.434l-1.513,0c-.39,0-.71,0-1.007,0A.679.679,0,0,0,.4,9.078.668.668,0,0,0,.238,9.6a.686.686,0,0,0,.729.6h7.84V10.7q0,3.652,0,7.3a1.337,1.337,0,0,0,.016.247A.713.713,0,0,0,9.344,18.795Z" transform="translate(1031.517 2431.99)" fill="#c7112b"/></g></svg>