<svg xmlns="http://www.w3.org/2000/svg" width="44.642" height="12.421" viewBox="0 0 44.642 12.421"><g transform="translate(-1.9 -24)"><g transform="translate(1.9 24)"><g transform="translate(22.65)"><g transform="translate(7.982 2.187)"><path d="M48.044,27a12.266,12.266,0,0,0-2.7.438l-.219,1.68a9.57,9.57,0,0,1,2.265-.511c.877,0,1.388.146,1.242.95-2.63,0-4.384.511-4.749,2.265-.511,2.923,2.7,3,3.945,1.68l-.146.8h2.338l1.023-4.749C51.405,27.583,49.652,26.925,48.044,27Zm.146,4.9c-.146.585-.658.8-1.242.877-.511,0-.95-.292-.658-.877.292-.438.95-.438,1.461-.438h.585C48.264,31.382,48.191,31.674,48.191,31.893Z" transform="translate(-43.825 -26.993)" fill="#32a6ce" fill-rule="evenodd"/></g><g transform="translate(7.982 2.265)"><path d="M45.122,29.146a9.57,9.57,0,0,1,2.265-.511c.877,0,1.388.146,1.242.95-2.63,0-4.384.511-4.749,2.265-.511,2.923,2.7,3,3.945,1.68l-.146.8h2.338l1.023-4.749c.438-1.973-1.388-2.484-3-2.484m.146,4.822c-.146.585-.658.8-1.242.877-.511,0-.95-.292-.658-.877.292-.438.95-.438,1.461-.438h.585C48.264,31.411,48.191,31.7,48.191,31.922Z" transform="translate(-43.825 -27.1)" fill="#1a80ad" fill-rule="evenodd"/></g><g transform="translate(15.27)"><path d="M55.7,24l-1.9,9.5h2.338L58.111,24Z" transform="translate(-53.8 -24)" fill="#32a6ce" fill-rule="evenodd"/></g><g transform="translate(15.27)"><path d="M57.38,24,53.8,33.5h2.338L58.111,24H57.38Z" transform="translate(-53.8 -24)" fill="#1a80ad" fill-rule="evenodd"/></g><g transform="translate(0.073)"><path d="M39.21,24H34.9L33,33.5h2.557l.658-2.923h1.827a3.473,3.473,0,0,0,3.58-2.849C41.987,25.607,40.453,24,39.21,24Zm-.073,3.288a1.491,1.491,0,0,1-1.461,1.1H36.507l.511-2.192h1.242A.827.827,0,0,1,39.137,27.288Z" transform="translate(-33 -24)" fill="#32a6ce" fill-rule="evenodd"/></g><path d="M39.183,24H36.261L32.9,33.5h2.557l.658-2.923h1.827a3.473,3.473,0,0,0,3.58-2.849C41.96,25.607,40.426,24,39.183,24Zm-.073,3.288a1.491,1.491,0,0,1-1.461,1.1H36.48l.511-2.192h1.242A.827.827,0,0,1,39.11,27.288Z" transform="translate(-32.9 -24)" fill="#1a80ad" fill-rule="evenodd"/></g><g transform="translate(7.981 2.187)"><path d="M16.9,27a10.86,10.86,0,0,0-2.63.438l-.219,1.68a8.738,8.738,0,0,1,2.265-.511c.877,0,1.388.146,1.242.95-2.557,0-4.311.511-4.676,2.265-.511,2.923,2.63,3,3.872,1.68l-.146.8h2.338l1.023-4.749C20.332,27.583,18.505,26.925,16.9,27Zm.219,4.9c-.146.585-.658.8-1.242.877-.511,0-.95-.292-.585-.877.292-.438.95-.438,1.388-.438h.585C17.19,31.382,17.117,31.674,17.117,31.893Z" transform="translate(-12.824 -26.993)" fill="#21789e" fill-rule="evenodd"/></g><g transform="translate(8.054 2.265)"><path d="M14.148,29.146a8.738,8.738,0,0,1,2.265-.511c.877,0,1.388.146,1.242.95-2.557,0-4.311.511-4.676,2.265-.511,2.923,2.63,3,3.872,1.68l-.219.8h2.338l1.023-4.749c.438-1.973-1.388-2.484-3-2.484m.146,4.822c-.146.585-.658.8-1.242.877-.511,0-.95-.292-.585-.877.292-.438.95-.438,1.388-.438h.585C17.217,31.411,17.144,31.7,17.144,31.922Z" transform="translate(-12.924 -27.1)" fill="#1a5b80" fill-rule="evenodd"/></g><g transform="translate(15.343 2.192)"><path d="M23.631,27h2.338l.365,4.092L28.672,27h2.411L25.53,37.229H22.9l1.68-3.069L23.631,27Z" transform="translate(-22.9 -27)" fill="#21789e" fill-rule="evenodd"/></g><g transform="translate(15.343 2.192)"><g transform="translate(0.731 0.146)"><path d="M23.9,27.2" transform="translate(-23.9 -27.2)" fill="#1a5b80" fill-rule="evenodd"/></g><path d="M25.969,27.146l.365,4.019L28.672,27h2.411L25.53,37.229H22.9l1.68-3" transform="translate(-22.9 -27)" fill="#1a5b80" fill-rule="evenodd"/></g><path d="M8.183,24H3.8L1.9,33.5H4.457l.658-2.923H6.941a3.473,3.473,0,0,0,3.58-2.849C10.96,25.607,9.426,24,8.183,24ZM8.11,27.288a1.491,1.491,0,0,1-1.461,1.1H5.48l.511-2.192H7.234A.827.827,0,0,1,8.11,27.288Z" transform="translate(-1.9 -24)" fill="#21789e" fill-rule="evenodd"/><path d="M8.183,24H6.211L1.9,33.5H4.457l.658-2.923H6.941a3.473,3.473,0,0,0,3.58-2.849C10.96,25.607,9.426,24,8.183,24ZM8.11,27.288a1.491,1.491,0,0,1-1.461,1.1H5.48l.511-2.192H7.234A.827.827,0,0,1,8.11,27.288Z" transform="translate(-1.9 -24)" fill="#1a5b80" fill-rule="evenodd"/><g transform="translate(7.981 4.749)"><path d="M16.46,30.5c-1.973.146-3.288.731-3.58,2.192-.511,2.923,2.63,3,3.872,1.68l-.146.877h2.338l.365-1.754Zm.658,2.338c-.146.585-.658.8-1.242.877-.511,0-.95-.292-.585-.877.292-.438.95-.438,1.388-.438h.585C17.19,32.327,17.117,32.619,17.117,32.838Z" transform="translate(-12.824 -30.5)" fill="#06435e" fill-rule="evenodd"/></g><g transform="translate(18.777 2.192)"><path d="M27.746,31.019l-.146.219L29.134,32.7,32.349,27H29.938Z" transform="translate(-27.6 -27)" fill="#06435e" fill-rule="evenodd"/></g><g transform="translate(0.219 6.576)"><path d="M4.538,35.923,5.2,33l-3,2.923Z" transform="translate(-2.2 -33)" fill="#06435e" fill-rule="evenodd"/></g><g transform="translate(22.869 6.43)"><path d="M35.538,35.869,36.2,32.8v.073l-3,3Z" transform="translate(-33.2 -32.8)" fill="#2273aa" fill-rule="evenodd"/></g><g transform="translate(30.705 4.749)"><path d="M47.56,30.5c-1.973.146-3.288.731-3.58,2.192-.511,2.923,2.7,3,3.945,1.68l-.219.877h2.338l.365-1.754Zm.658,2.338c-.146.585-.658.8-1.242.877-.511,0-.95-.292-.658-.877.292-.438.95-.438,1.461-.438h.585C48.291,32.327,48.218,32.619,48.218,32.838Z" transform="translate(-43.925 -30.5)" fill="#2273aa" fill-rule="evenodd"/></g><g transform="translate(37.92 5.188)"><path d="M55.48,31.1,53.8,35.411h2.338l.658-2.923Z" transform="translate(-53.8 -31.1)" fill="#2273aa" fill-rule="evenodd"/></g></g><g transform="translate(44.277 24.292)"><g transform="translate(0 0.073)"><path d="M60.265,25.669V24.646H59.9V24.5h.95v.146h-.365v1.023Z" transform="translate(-59.9 -24.5)" fill="#32a6ce"/></g><g transform="translate(1.096)"><path d="M61.4,25.642V24.473h.219l.292.8a.255.255,0,0,0,.073.146c0-.073,0-.073.073-.219l.292-.8h.219v1.169h-.146V24.546l-.365,1.023h-.219l-.365-1.023v1.023H61.4Z" transform="translate(-61.4 -24.4)" fill="#32a6ce"/></g></g></g></svg>