<svg xmlns="http://www.w3.org/2000/svg" width="21.645" height="21.645" viewBox="0 0 21.645 21.645"><g transform="translate(14711.611 -11277.01)"><path d="M14.96,7.64a.772.772,0,0,1-.585.568,1.3,1.3,0,0,1-.247.017H8.211V8.4c0,1.887-.007,3.775.005,5.662a.838.838,0,0,1-.589.922H7.335a.777.777,0,0,1-.567-.587,1.217,1.217,0,0,1-.016-.233q0-2.875,0-5.75V8.225H.774A.732.732,0,1,1,.731,6.763c.662,0,1.324,0,1.986,0H6.75V6.584c0-1.888.007-3.775-.005-5.662A.838.838,0,0,1,7.334,0h.292a.771.771,0,0,1,.567.586A1.3,1.3,0,0,1,8.21.833q0,2.868,0,5.735v.193h.178c1.884,0,3.768.007,5.652-.005a.835.835,0,0,1,.92.591V7.64Z" transform="translate(-14700.802 11277.222) rotate(45)" fill="#c7112b"/><path d="M7.652,15.137H7.309l-.025-.009a.918.918,0,0,1-.664-.7,1.362,1.362,0,0,1-.019-.262q0-2.875,0-5.75V8.375H.774A.882.882,0,1,1,.729,6.613c.464,0,.928,0,1.391,0H6.6V6.584q0-.758,0-1.516c0-1.359,0-2.764-.007-4.146A.987.987,0,0,1,7.286-.142L7.31-.15h.343l.024.009a.91.91,0,0,1,.664.7,1.443,1.443,0,0,1,.02.276q0,2.867,0,5.735v.043h.028l3.025,0c1.049,0,1.858,0,2.626-.008h.015A.98.98,0,0,1,15.1,7.3l.008.023V7.49h.063l-.071.2a.913.913,0,0,1-.7.665,1.44,1.44,0,0,1-.275.02H8.361V8.4q0,.769,0,1.537c0,1.352,0,2.75.006,4.124a.987.987,0,0,1-.692,1.065Zm-.29-.3H7.6c.333-.119.468-.344.465-.77-.009-1.375-.008-2.774-.006-4.126q0-.768,0-1.537V8.075h6.067a1.174,1.174,0,0,0,.218-.014.61.61,0,0,0,.464-.446V7.372a.679.679,0,0,0-.756-.466h-.013c-.768.005-1.578.008-2.628.008l-3.025,0H8.061V6.569q0-2.868,0-5.735A1.177,1.177,0,0,0,8.046.615.608.608,0,0,0,7.6.15H7.359c-.333.119-.468.344-.465.77C6.9,2.3,6.9,3.709,6.9,5.068q0,.758,0,1.516v.328H1.525q-.4,0-.793,0a.581.581,0,0,0-.436.2.572.572,0,0,0-.142.449.585.585,0,0,0,.621.518H6.9v.342q0,2.875,0,5.75a1.091,1.091,0,0,0,.014.2A.615.615,0,0,0,7.362,14.837Z" transform="translate(-14700.802 11277.222) rotate(45)" fill="#c7112b"/></g></svg>