<svg xmlns="http://www.w3.org/2000/svg" width="12.347" height="10.917" viewBox="0 0 12.347 10.917"><g transform="translate(0 0)"><path d="M131.638,24.006h3.406a.426.426,0,0,1,.467.4.42.42,0,0,1-.356.451.922.922,0,0,1-.161.01h-6.717c-.29,0-.464-.123-.509-.358a.423.423,0,0,1,.37-.5,1.609,1.609,0,0,1,.161,0h3.338Z" transform="translate(-123.165 -23.142)"/><path d="M131.6,248.4h-3.379a.443.443,0,0,1-.461-.278.428.428,0,0,1,.317-.569.638.638,0,0,1,.133-.014q3.4,0,6.8,0a.433.433,0,0,1,.477.46.419.419,0,0,1-.386.4c-.085.006-.17,0-.256,0H131.6Z" transform="translate(-123.139 -238.637)"/><path d="M131.584,135.769h3.406a.431.431,0,0,1,.078.859.914.914,0,0,1-.094,0h-6.785a.45.45,0,0,1-.465-.294.43.43,0,0,1,.427-.567c.529,0,1.059,0,1.588,0h1.844Z" transform="translate(-123.108 -130.885)"/><path d="M.04,105.363a1.578,1.578,0,1,1,1.572,1.58A1.582,1.582,0,0,1,.04,105.363Zm.862,0a.716.716,0,1,0,.718-.717.717.717,0,0,0-.718.717Z" transform="translate(-0.039 -100.047)"/><path d="M.04,217.3a1.578,1.578,0,1,1,1.575,1.575A1.573,1.573,0,0,1,.04,217.3Zm.862,0a.716.716,0,1,0,.713-.717A.715.715,0,0,0,.9,217.3Z" transform="translate(-0.039 -207.961)"/><path d="M1.3,1.549,1.851.993c.288-.289.575-.58.867-.865A.427.427,0,0,1,3.324.122a.42.42,0,0,1,.008.6Q2.472,1.6,1.6,2.459a.414.414,0,0,1-.6,0Q.563,2.031.139,1.6A.429.429,0,1,1,.745.99c.183.178.36.363.553.558Z" transform="translate(-0.01 0.001)"/></g></svg>