<svg xmlns="http://www.w3.org/2000/svg" width="44" height="44" viewBox="0 0 44 44"><g transform="translate(-1086 -732)"><rect width="44" height="44" rx="4" transform="translate(1086 732)" fill="#c7112b"/><g transform="translate(1098.516 743.99)"><path d="M18.984,9.713a.981.981,0,0,1-.744.721,1.651,1.651,0,0,1-.313.021H10.413v.227c0,2.4-.009,4.795.006,7.191a1.064,1.064,0,0,1-.749,1.17H9.3a.987.987,0,0,1-.721-.745,1.545,1.545,0,0,1-.021-.3q0-3.652,0-7.3v-.244H.967A.929.929,0,1,1,.911,8.6c.841-.006,1.681,0,2.522,0H8.556V8.372c0-2.4.009-4.795-.007-7.192A1.064,1.064,0,0,1,9.3.01H9.67a.979.979,0,0,1,.72.745,1.656,1.656,0,0,1,.021.314q0,3.642,0,7.284V8.6h.226c2.393,0,4.785.009,7.178-.007a1.061,1.061,0,0,1,1.168.751v.372Z" transform="translate(0 0)" fill="#fff"/></g></g></svg>