<svg xmlns="http://www.w3.org/2000/svg" width="10.914" height="10.917" viewBox="0 0 10.914 10.917"><g transform="translate(0)"><path d="M21.914,0c.017.011.034.022.052.032a.319.319,0,0,1-.14.607c-.2,0-.391,0-.586,0a.329.329,0,0,0-.37.375c0,1.591,0,3.182,0,4.773a3.691,3.691,0,0,1-1.2,2.813,3.656,3.656,0,0,1-3.791.865,3.7,3.7,0,0,1-2.6-2.917,3.746,3.746,0,0,1-.071-.783c-.006-1.577,0-3.154,0-4.731,0-.28-.115-.4-.392-.4h-.522a.33.33,0,0,1-.358-.253.325.325,0,0,1,.214-.37c.005,0,.009-.01.013-.015h4.008c0,.005.007.013.013.016a.325.325,0,0,1,.214.37.33.33,0,0,1-.358.253c-.188,0-.376,0-.565,0a.321.321,0,0,0-.349.343c0,1.627-.005,3.253,0,4.88a1.917,1.917,0,0,0,3.834-.053q0-2.4,0-4.805a.326.326,0,0,0-.36-.364c-.2,0-.4,0-.6,0a.32.32,0,0,1-.315-.253.322.322,0,0,1,.175-.354c.018-.01.035-.021.052-.032Z" transform="translate(-11.576)"/><path d="M10.914,361.108a.411.411,0,0,1-.429.237q-5.04-.006-10.08,0c-.255,0-.4-.118-.4-.32s.148-.32.4-.32q5.04,0,10.08,0a.411.411,0,0,1,.429.237v.171Z" transform="translate(0 -350.428)"/></g></svg>