<svg xmlns="http://www.w3.org/2000/svg" width="38.907" height="23.278" viewBox="0 0 38.907 23.278"><g transform="translate(16654 -7169.523)"><path d="M588.062,666.066a11.428,11.428,0,1,1-.87-4.374A11.428,11.428,0,0,1,588.062,666.066Z" transform="translate(-17204.326 6514.985)" fill="#ffc107"/><path d="M565.179,672.922a11.39,11.39,0,0,1-1.348-2.287h6.085a11.344,11.344,0,0,0,.727-2.285h-7.536a11.323,11.323,0,0,1-.233-2.285h8a11.657,11.657,0,0,0-.228-2.285H563.1a11.407,11.407,0,0,1,.728-2.287h6.085a11.389,11.389,0,0,0-1.341-2.285h-3.4a11.48,11.48,0,0,1,1.692-1.825,11.431,11.431,0,1,0,1.7,15.54Z" transform="translate(-17202 6514.985)" fill="#ff3d00"/><path d="M589.385,666.162a11.535,11.535,0,1,1-.85-4.447A11.538,11.538,0,0,1,589.385,666.162Z" transform="translate(-17204.479 6515)" fill="#ffb600"/><path d="M577.845,654.636a11.624,11.624,0,1,1-11.54,11.541" transform="translate(-17204.479 6514.985)" fill="#f7981d"/><path d="M579.65,654.636a11.54,11.54,0,1,1,0,23.081" transform="translate(-17206.285 6514.985)" fill="#ff8500"/><path d="M559.928,654.636a11.541,11.541,0,0,0,.123,23.081,11.678,11.678,0,0,0,7.755-2.992,11.041,11.041,0,0,0,1.159-1.221h-2.381a14.161,14.161,0,0,1-.854-1.16h4.087a7.8,7.8,0,0,0,.672-1.221h-5.431a7.238,7.238,0,0,1-.488-1.222h6.351a12.147,12.147,0,0,0,.61-3.662,15.734,15.734,0,0,0-.244-2.443H564.2a8.955,8.955,0,0,1,.306-1.221h6.35a7.215,7.215,0,0,0-.489-1.221H565a11.913,11.913,0,0,1,.672-1.222h4.09a5.84,5.84,0,0,0-.916-1.221h-2.259a10.487,10.487,0,0,1,1.16-1.16,11.265,11.265,0,0,0-7.754-2.992C559.989,654.636,559.989,654.636,559.928,654.636Z" transform="translate(-17202.07 6514.985)" fill="#ff5050"/><path d="M548.508,666.2a11.531,11.531,0,0,0,11.54,11.54,11.677,11.677,0,0,0,7.755-2.992,11.045,11.045,0,0,0,1.16-1.221h-2.381a13.984,13.984,0,0,1-.855-1.16h4.087a7.785,7.785,0,0,0,.672-1.221h-5.431a7.307,7.307,0,0,1-.489-1.222h6.351a12.118,12.118,0,0,0,.61-3.662,15.644,15.644,0,0,0-.244-2.443H564.2a8.8,8.8,0,0,1,.305-1.221h6.35a7.234,7.234,0,0,0-.489-1.222h-5.375a12.235,12.235,0,0,1,.672-1.221h4.091a5.787,5.787,0,0,0-.916-1.221h-2.259a10.492,10.492,0,0,1,1.16-1.16,11.265,11.265,0,0,0-7.754-2.992h-.06" transform="translate(-17202.07 6514.965)" fill="#e52836"/><path d="M561.836,677.737a11.677,11.677,0,0,0,7.755-2.992,11.051,11.051,0,0,0,1.16-1.221h-2.379a13.928,13.928,0,0,1-.855-1.16h4.09a7.8,7.8,0,0,0,.672-1.221h-5.434a7.392,7.392,0,0,1-.489-1.222h6.351a12.12,12.12,0,0,0,.61-3.662,15.629,15.629,0,0,0-.244-2.443h-7.082a8.8,8.8,0,0,1,.305-1.221h6.351a7.309,7.309,0,0,0-.489-1.222h-5.373a12.247,12.247,0,0,1,.672-1.221h4.091a5.787,5.787,0,0,0-.916-1.221h-2.26a10.432,10.432,0,0,1,1.16-1.16,11.269,11.269,0,0,0-7.755-2.992h-.064" transform="translate(-17203.855 6514.965)" fill="#cb2026"/><path d="M566.308,670.532l.182-1.038a2.625,2.625,0,0,1-.305.061c-.428,0-.488-.244-.428-.367l.367-2.136h.672l.182-1.16h-.61l.122-.732h-1.221s-.732,4.029-.732,4.519a.921.921,0,0,0,.24.752.929.929,0,0,0,.336.227.917.917,0,0,0,.4.059A1.884,1.884,0,0,0,566.308,670.532Z" transform="translate(-17204.236 6513.56)" fill="#fff"/><path d="M567.079,668.682a1.944,1.944,0,0,0,2.137,2.137,3.174,3.174,0,0,0,1.282-.183l.244-1.16a3.671,3.671,0,0,1-1.282.306c-1.344,0-1.1-.978-1.1-.978h2.5a8.015,8.015,0,0,0,.183-1.1,1.655,1.655,0,0,0-1.772-1.772C567.995,665.812,567.079,667.155,567.079,668.682Zm2.137-1.771c.672,0,.549.794.549.854h-1.343c0-.06.122-.854.794-.854Z" transform="translate(-17204.582 6513.457)" fill="#fff"/><path d="M578,670.446l.244-1.344a2.993,2.993,0,0,1-1.038.306c-.854,0-1.221-.672-1.221-1.4,0-1.466.732-2.259,1.587-2.259a2.049,2.049,0,0,1,1.1.367l.182-1.282a4.274,4.274,0,0,0-1.4-.306c-1.4,0-2.808,1.221-2.808,3.542,0,1.527.732,2.565,2.2,2.565A5.446,5.446,0,0,0,578,670.446Z" transform="translate(-17205.605 6513.646)" fill="#fff"/><path d="M558.456,665.793a4.318,4.318,0,0,0-1.466.244l-.182,1.037a3.623,3.623,0,0,1,1.343-.244c.428,0,.795.061.795.428,0,.244-.061.305-.061.305h-.549c-1.038,0-2.2.428-2.2,1.831,0,1.1.732,1.344,1.16,1.344a1.829,1.829,0,0,0,1.282-.55l-.061.488h1.1l.489-3.358a1.45,1.45,0,0,0-1.014-1.476A1.44,1.44,0,0,0,558.456,665.793Zm.244,2.746c0,.183-.123,1.16-.855,1.16a.47.47,0,0,1-.189-.034.475.475,0,0,1-.3-.455c0-.305.183-.732,1.1-.732A.943.943,0,0,0,558.7,668.539Z" transform="translate(-17203.102 6513.476)" fill="#fff"/><path d="M561.847,670.731a1.573,1.573,0,0,0,.687-.035,1.565,1.565,0,0,0,1.145-1.553c0-1.526-1.466-1.221-1.466-1.831,0-.305.244-.428.672-.428.182,0,.854.061.854.061l.183-1.1a4.636,4.636,0,0,0-1.16-.122c-.916,0-1.831.366-1.831,1.587,0,1.4,1.527,1.283,1.527,1.831,0,.367-.428.428-.732.428a3.989,3.989,0,0,1-1.1-.183l-.183,1.1C560.5,670.608,560.809,670.731,561.847,670.731Z" transform="translate(-17203.684 6513.484)" fill="#fff"/><path d="M589.7,664.665l-.244,1.649a1.686,1.686,0,0,0-1.16-.611c-1.1,0-2.075,1.344-2.075,2.93,0,.978.489,2.016,1.526,2.016a1.631,1.631,0,0,0,1.16-.489l-.06.428h1.221l.916-5.862Zm-.549,3.236c0,.672-.305,1.527-.977,1.527-.428,0-.672-.367-.672-.977,0-.977.428-1.588.977-1.588.427,0,.671.305.671,1.038Z" transform="translate(-17207.174 6513.627)" fill="#fff"/><path d="M550.939,670.526l.732-4.4.123,4.4h.854l1.587-4.4-.672,4.4h1.283l.977-5.861h-2.015l-1.221,3.6-.062-3.6h-1.77l-.977,5.861Z" transform="translate(-17202.242 6513.627)" fill="#fff"/><path d="M572.8,670.7c.366-2.015.427-3.662,1.282-3.358a4.772,4.772,0,0,1,.428-1.4h-.244c-.55,0-.977.732-.977.732l.122-.671h-1.16l-.795,4.766H572.8Z" transform="translate(-17205.176 6513.455)" fill="#fff"/><path d="M581.408,665.792a4.311,4.311,0,0,0-1.466.244l-.183,1.038a3.621,3.621,0,0,1,1.343-.244c.428,0,.795.061.795.428,0,.244-.061.305-.061.305h-.549c-1.038,0-2.2.428-2.2,1.831,0,1.1.732,1.344,1.16,1.344a1.829,1.829,0,0,0,1.282-.55l-.06.488h1.1l.489-3.358a1.418,1.418,0,0,0-.452-1.166,1.423,1.423,0,0,0-1.2-.361Zm.305,2.746c0,.183-.123,1.16-.855,1.16a.468.468,0,0,1-.188-.034.483.483,0,0,1-.16-.106.481.481,0,0,1-.14-.349c0-.305.183-.732,1.1-.732C581.652,668.538,581.652,668.538,581.713,668.538Z" transform="translate(-17206.209 6513.477)" fill="#fff"/><path d="M584.667,670.7c.366-2.015.428-3.662,1.282-3.358a4.816,4.816,0,0,1,.428-1.4h-.245c-.549,0-.977.732-.977.732l.122-.671h-1.159l-.795,4.766h1.344Z" transform="translate(-17206.783 6513.455)" fill="#fff"/><path d="M564.4,669.678a.913.913,0,0,0,.24.752.911.911,0,0,0,.737.285,2.316,2.316,0,0,0,.916-.183l.182-1.038a2.624,2.624,0,0,1-.305.061c-.428,0-.489-.244-.428-.367l.367-2.136h.672l.182-1.16h-.61l.122-.732" transform="translate(-17204.219 6513.56)" fill="#dce5e5"/><path d="M567.787,668.682c0,1.709.549,2.137,1.527,2.137a3.178,3.178,0,0,0,1.282-.183l.244-1.16a3.676,3.676,0,0,1-1.282.306c-1.344,0-1.1-.978-1.1-.978h2.5a7.753,7.753,0,0,0,.183-1.1,1.655,1.655,0,0,0-1.771-1.772C568.092,665.812,567.787,667.155,567.787,668.682Zm1.527-1.771c.671,0,.794.794.794.854h-1.588c0-.06.123-.854.795-.854Z" transform="translate(-17204.678 6513.457)" fill="#dce5e5"/><path d="M578.09,670.446l.244-1.344a2.987,2.987,0,0,1-1.038.306c-.855,0-1.221-.672-1.221-1.4,0-1.466.732-2.259,1.587-2.259a2.049,2.049,0,0,1,1.1.367l.183-1.282a4.283,4.283,0,0,0-1.4-.306c-1.4,0-2.2,1.221-2.2,3.542,0,1.527.122,2.565,1.587,2.565A5.429,5.429,0,0,0,578.09,670.446Z" transform="translate(-17205.701 6513.646)" fill="#dce5e5"/><path d="M556.807,667.157a3.622,3.622,0,0,1,1.343-.245c.428,0,.795.062.795.428,0,.244-.061.306-.061.306h-.549c-1.038,0-2.2.427-2.2,1.831,0,1.1.732,1.343,1.16,1.343a1.831,1.831,0,0,0,1.282-.549l-.061.488h1.1l.489-3.358c0-1.4-1.221-1.466-1.709-1.466Zm2.5,1.4a2,2,0,0,1-1.466,1.16.476.476,0,0,1-.189-.034.477.477,0,0,1-.266-.265.474.474,0,0,1-.034-.189c0-.305.183-.732,1.1-.732a4.96,4.96,0,0,0,.853.06Z" transform="translate(-17203.102 6513.455)" fill="#dce5e5"/><path d="M560.514,670.608a5.18,5.18,0,0,0,1.4.123,1.565,1.565,0,0,0,1.831-1.588c0-1.526-1.466-1.221-1.466-1.831,0-.305.244-.428.672-.428.183,0,.855.061.855.061l.182-1.1a4.63,4.63,0,0,0-1.16-.122c-.915,0-1.221.366-1.221,1.587,0,1.4.916,1.283.916,1.831,0,.367-.428.428-.732.428" transform="translate(-17203.693 6513.484)" fill="#dce5e5"/><path d="M589.548,666.322a1.692,1.692,0,0,0-1.16-.611c-1.1,0-1.466,1.344-1.466,2.93,0,.978-.122,2.016.916,2.016a1.632,1.632,0,0,0,1.16-.489l-.06.428h1.221l.916-5.862Zm-.061,1.587c0,.672-.549,1.527-1.221,1.527-.428,0-.672-.367-.672-.977,0-.977.428-1.588.977-1.588a.93.93,0,0,1,.69.315.952.952,0,0,1,.191.338.941.941,0,0,1,.037.386Z" transform="translate(-17207.268 6513.618)" fill="#dce5e5"/><path d="M550.939,670.526l.732-4.4.123,4.4h.854l1.587-4.4-.672,4.4h1.283l.977-5.861H554.3l-1.709,3.6-.062-3.6h-.672l-2.075,5.861Z" transform="translate(-17202.242 6513.627)" fill="#dce5e5"/><path d="M571.53,670.7h1.283c.366-2.015.427-3.662,1.282-3.358a4.8,4.8,0,0,1,.428-1.4h-.246c-.549,0-.977.732-.977.732l.122-.671" transform="translate(-17205.186 6513.455)" fill="#dce5e5"/><path d="M579.759,667.157a3.621,3.621,0,0,1,1.343-.245c.428,0,.795.062.795.428,0,.244-.061.306-.061.306h-.549c-1.038,0-2.2.427-2.2,1.831,0,1.1.732,1.343,1.16,1.343a1.832,1.832,0,0,0,1.282-.549l-.06.488h1.1l.489-3.358c0-1.4-1.221-1.466-1.709-1.466Zm2.5,1.4a2,2,0,0,1-1.466,1.16.469.469,0,0,1-.188-.034.477.477,0,0,1-.161-.105.5.5,0,0,1-.105-.16.473.473,0,0,1-.034-.189c0-.305.183-.732,1.1-.732a5.3,5.3,0,0,0,.853.06Z" transform="translate(-17206.209 6513.455)" fill="#dce5e5"/><path d="M583.4,670.7h1.282c.366-2.015.428-3.662,1.282-3.358a4.823,4.823,0,0,1,.428-1.4h-.247c-.549,0-.977.732-.977.732l.122-.671" transform="translate(-17206.791 6513.455)" fill="#dce5e5"/></g></svg>