<svg xmlns="http://www.w3.org/2000/svg" width="7.292" height="13.037" viewBox="0 0 7.292 13.037"><g transform="translate(-1248.959 -1421.963)"><path d="M12.385,117.489a.522.522,0,0,0-.739,0l-5.377,5.377L.892,117.489a.522.522,0,0,0-.739.739L5.9,123.975a.522.522,0,0,0,.739,0l5.747-5.747A.522.522,0,0,0,12.385,117.489Z" transform="translate(1131.872 1434.751) rotate(-90)"/><path d="M.523,117.086a.767.767,0,0,1,.546.226l5.2,5.2,5.2-5.2a.772.772,0,0,1,1.092,1.092l-5.747,5.747a.772.772,0,0,1-1.092,0L-.023,118.4a.773.773,0,0,1,.546-1.319Zm5.747,6.134L.715,117.666a.272.272,0,1,0-.385.385L6.077,123.8a.272.272,0,0,0,.385,0l5.747-5.747a.272.272,0,1,0-.385-.385Z" transform="translate(1131.872 1434.751) rotate(-90)"/></g></svg>