<svg xmlns="http://www.w3.org/2000/svg" width="16.568" height="16.571" viewBox="0 0 16.568 16.571"><g transform="translate(0 0.001)"><path d="M14.692,16.569H1.878a.621.621,0,0,0-.089-.03A2.128,2.128,0,0,1,0,14.447Q0,8.93,0,3.413A2.091,2.091,0,0,1,1.65,1.36,6.174,6.174,0,0,1,2.711,1.3c.3-.01.6,0,.914,0,0-.253,0-.489,0-.725a.52.52,0,1,1,1.035,0c0,.236,0,.472,0,.712h7.248v-.4c0-.642.141-.887.514-.889s.522.247.522.882v.412c.518,0,1.018,0,1.519,0A2.137,2.137,0,0,1,16.5,2.875c.026.1.048.2.072.3V14.693a.4.4,0,0,0-.028.073A2.1,2.1,0,0,1,15.2,16.425a4.529,4.529,0,0,1-.506.145ZM1.037,5.7V14.35a1.1,1.1,0,0,0,1.181,1.184H14.352a1.105,1.105,0,0,0,1.181-1.184q0-4.239,0-8.479V5.7H1.037Zm14.5-1.047c0-.423,0-.828,0-1.232A1.1,1.1,0,0,0,14.436,2.33c-.453-.005-.906,0-1.359,0-.041,0-.083.006-.134.01,0,.165,0,.32,0,.476a.518.518,0,1,1-1.035,0c0-.16,0-.32,0-.48H4.661c0,.166,0,.322,0,.478a.518.518,0,1,1-1.034,0c0-.16,0-.319,0-.489-.511,0-1,0-1.49,0a1.1,1.1,0,0,0-1.1,1.1c0,.367,0,.733,0,1.1a1.1,1.1,0,0,0,.012.118H15.533Z" transform="translate(0 0)" fill="#c7112b"/></g></svg>