<svg width="40" height="40" viewBox="0 0 40 40" fill="none" xmlns="http://www.w3.org/2000/svg">
<circle cx="20" cy="20" r="19" transform="rotate(-180 20 20)" stroke="#D6D6D6" stroke-width="2"/>
<path d="M23.9972 12.0087C23.6581 11.6637 23.1061 11.6639 22.7669 12.0086C22.7669 12.0086 22.7669 12.0086 22.7669 12.0086L16.0027 18.8804L16.0025 18.8806C15.8407 19.0453 15.75 19.2681 15.75 19.4997L15.7501 19.4997C15.7502 19.7312 15.841 19.9538 16.0032 20.1186L22.7663 26.9915L22.7664 26.9915C23.1058 27.3364 23.6573 27.336 23.9965 26.9916L23.9966 26.9915C24.3338 26.6489 24.3338 26.0954 23.9966 25.7528L17.8424 19.4998L23.9971 13.2473L23.9971 13.2473C24.3343 12.9047 24.3343 12.3513 23.9972 12.0087ZM23.9972 12.0087C23.9972 12.0087 23.9972 12.0087 23.9973 12.0088L23.8189 12.184L23.9971 12.0086C23.9971 12.0086 23.9972 12.0087 23.9972 12.0087Z" fill="#D6D6D6" stroke="#D6D6D6" stroke-width="0.5"/>
</svg>
