<svg xmlns="http://www.w3.org/2000/svg" width="14.129" height="14.571" viewBox="0 0 14.129 14.571"><g transform="translate(-2.003 0.005)"><g transform="translate(2.003 -0.005)"><path d="M16.132,1.57V12.989a.124.124,0,0,0-.024.038,1.825,1.825,0,0,1-1.923,1.537H6.375c-.843,0-1.685,0-2.528,0A1.821,1.821,0,0,1,2,12.707q0-5.428,0-10.857a1.893,1.893,0,0,1,.045-.43A1.82,1.82,0,0,1,3.878,0c1.546,0,1.333,0,2.879,0Q10.5,0,14.247,0A1.779,1.779,0,0,1,15.9.938a4.083,4.083,0,0,1,.235.632ZM3,3.313v9.334a.841.841,0,0,0,.924.923H14.213a.841.841,0,0,0,.926-.921V3.313H3ZM3,2.3H15.135c0-.2.013-.382,0-.566a.839.839,0,0,0-.92-.75H3.922a1.488,1.488,0,0,0-.247.019A.814.814,0,0,0,3,1.739c-.014.184,0,.37,0,.565Z" transform="translate(-2.003 0.005)" fill="#c7112b"/><path d="M179.789,127.812q1.226,0,2.451,0a.5.5,0,0,1,.5.348.472.472,0,0,1-.188.546.607.607,0,0,1-.3.094q-2.466.009-4.932,0a.5.5,0,1,1,.011-.991c.822,0,1.644,0,2.466,0Z" transform="translate(-171.23 -122.513)" fill="#c7112b"/><path d="M179.8,192.594c-.817,0-1.634,0-2.45,0a.492.492,0,0,1-.5-.643.5.5,0,0,1,.482-.347c.16-.005.32,0,.481,0h4.4a.5.5,0,0,1,.563.488.484.484,0,0,1-.5.5c-.356.006-.713,0-1.07,0H179.8Z" transform="translate(-171.248 -183.657)" fill="#c7112b"/><path d="M179.78,255.634q1.217,0,2.435,0a.494.494,0,0,1,.172.968.93.93,0,0,1-.23.024h-4.777a1.019,1.019,0,0,1-.155-.008.5.5,0,0,1-.434-.52.489.489,0,0,1,.492-.462c.832,0,1.665,0,2.5,0h0Z" transform="translate(-171.221 -245.036)" fill="#c7112b"/><path d="M66.55,127.809c.263,0,.526,0,.79,0a.5.5,0,1,1,.005.992c-.537,0-.194,0-.731,0a.5.5,0,1,1-.005-.991C66.883,127.807,66.277,127.809,66.55,127.809Z" transform="translate(-64.28 -122.51)" fill="#c7112b"/><path d="M66.534,192.578c-.263,0,.353,0,.09,0a.5.5,0,1,1-.008-.99c.536-.005.194-.005.73,0a.5.5,0,1,1-.007.99C67.071,192.58,66.8,192.578,66.534,192.578Z" transform="translate(-64.281 -183.641)" fill="#c7112b"/><path d="M66.535,255.619c.268,0,.536,0,.805,0a.5.5,0,1,1,0,.99c-.536.005-.194.006-.73,0a.5.5,0,1,1,.011-.991h-.09Z" transform="translate(-64.28 -245.022)" fill="#c7112b"/></g></g></svg>