<svg xmlns="http://www.w3.org/2000/svg" width="16.536" height="15.433" viewBox="0 0 16.536 15.433"><g transform="translate(0.004 0.007)"><g transform="translate(-0.004 -0.007)"><path d="M3.3,12.119H1.671A1.624,1.624,0,0,1,.554,11.7,1.647,1.647,0,0,1,0,10.414Q0,7.969,0,5.523,0,3.629,0,1.735A1.657,1.657,0,0,1,1.736-.007H14.789a1.654,1.654,0,0,1,1.741,1.74q0,4.323,0,8.645a1.655,1.655,0,0,1-1.741,1.74q-3.22,0-6.44,0a.5.5,0,0,0-.291.1Q6.21,13.69,4.371,15.166c-.054.043-.107.087-.162.128a.553.553,0,0,1-.905-.446q0-1.249,0-2.5v-.234Zm1.1,1.606L4.56,13.6c.986-.789,1.974-1.575,2.955-2.368a.937.937,0,0,1,.629-.222q3.323.01,6.647,0a.565.565,0,0,0,.637-.634V1.721A.562.562,0,0,0,14.8,1.1H1.731a.565.565,0,0,0-.633.638v8.644a.563.563,0,0,0,.632.639c.694,0,1.389,0,2.084,0a.551.551,0,0,1,.591.593c0,.637,0,1.274,0,1.911v.2Z" transform="translate(0.004 0.007)" fill="#c7112b"/><path d="M76.793,96.9q-2.187,0-4.374,0a.55.55,0,0,1-.548-.747.535.535,0,0,1,.47-.352,1.449,1.449,0,0,1,.155,0h8.594a1.121,1.121,0,0,1,.223.012.553.553,0,0,1,.44.577.547.547,0,0,1-.533.51c-.379.008-.758,0-1.137,0H76.793Z" transform="translate(-68.525 -91.391)" fill="#c7112b"/><path d="M74.662,143.72H76.78a.555.555,0,1,1,.01,1.1H72.52a.555.555,0,1,1,.008-1.1h2.135Z" transform="translate(-68.591 -137.106)" fill="#c7112b"/></g></g></svg>