<svg xmlns="http://www.w3.org/2000/svg" width="11.485" height="6.343" viewBox="0 0 11.485 6.343"><g transform="translate(-140.859 -109.028)"><path d="M0,5.743a.6.6,0,0,1-.424-.176.6.6,0,0,1,0-.849L4.718-.424a.6.6,0,0,1,.849,0,.6.6,0,0,1,0,.849L.424,5.567A.6.6,0,0,1,0,5.743Z" transform="translate(141.459 114.771) rotate(-90)"/><path d="M5.143,5.743a.6.6,0,0,1-.424-.176L-.424.424a.6.6,0,0,1,0-.849.6.6,0,0,1,.849,0L5.567,4.718a.6.6,0,0,1-.424,1.024Z" transform="translate(146.602 114.771) rotate(-90)"/></g></svg>