<svg xmlns="http://www.w3.org/2000/svg" width="12.506" height="12.506" viewBox="0 0 12.506 12.506">
  <g id="ic_edit" transform="translate(-50)">
    <g id="Group_19869" data-name="Group 19869" transform="translate(0 0)">
      <path id="Path_35332" data-name="Path 35332" d="M11.713.793a2.714,2.714,0,0,0-3.833,0L.143,8.53A.49.49,0,0,0,0,8.872s0,0,0,0v3.142a.489.489,0,0,0,.489.489H3.631a.491.491,0,0,0,.345-.143l7.737-7.737A2.714,2.714,0,0,0,11.713.793ZM.977,11.529V10.055l1.474,1.474Zm2.654-.2L1.179,8.875l6.1-6.1.88.88L4.883,6.932a.489.489,0,1,0,.691.691L8.855,4.342l.88.88Zm7.391-7.391-.6.6L7.975,2.08l.6-.6a1.733,1.733,0,1,1,2.451,2.452Z" transform="translate(50 0)" fill="#fff"/>
    </g>
  </g>
</svg>
