<svg width="40" height="40" viewBox="0 0 40 40" fill="none" xmlns="http://www.w3.org/2000/svg">
<circle cx="20" cy="20" r="19" stroke="#C7112B" stroke-width="2"/>
<path d="M16.0028 27.9913C16.3419 28.3363 16.8939 28.3361 17.2331 27.9914C17.2331 27.9914 17.2331 27.9914 17.2331 27.9914L23.9973 21.1196L23.9975 21.1194C24.1593 20.9547 24.25 20.7319 24.25 20.5003L24.2499 20.5003C24.2498 20.2688 24.159 20.0462 23.9968 19.8814L17.2337 13.0085L17.2336 13.0085C16.8942 12.6636 16.3427 12.6641 16.0035 13.0085L16.0034 13.0085C15.6662 13.3511 15.6662 13.9046 16.0034 14.2472L22.1576 20.5002L16.0029 26.7527L16.0029 26.7528C15.6657 27.0953 15.6657 27.6487 16.0028 27.9913ZM16.0028 27.9913C16.0028 27.9913 16.0028 27.9913 16.0027 27.9912L16.1811 27.816L16.0029 27.9914C16.0029 27.9914 16.0028 27.9913 16.0028 27.9913Z" fill="#C7112B" stroke="#C7112B" stroke-width="0.5"/>
</svg>
