<svg xmlns="http://www.w3.org/2000/svg" width="236.553" height="47.072" viewBox="0 0 236.553 47.072"><path d="M78.8.137V.976c6.264,1.347,9.885,4.969,10.4,10.589h.914c-.031-4.266-.048-8.359-.3-11.428C86.584-.04,82.883-.029,78.8.137Z" transform="translate(-73.715 -0.008)" fill="#c7112b"/><path d="M78.8,515.873V515.3c6.264-1.35,11.077-6.164,11.6-11.787l1.04.079L90.686,515.9Z" transform="translate(-73.715 -471.02)" fill="#c7112b"/><path d="M269,2.989c5.652.661,3.162,2.744,20.943,45.773l8.3-18.112-.968-.279c-4.572,6.63-4.953,6.5-7.633.013l-9.1-22.975c-1.616-3.144-.129-4.517,3.924-4.42V2H269Z" transform="translate(-251.642 -1.871)" fill="#c7112b"/><path d="M263.751,504.74c-.137,3.888-.375,7.968-.751,12.315" transform="translate(-246.03 -472.171)" fill="#c7112b"/><path d="M90.686,695.132q-5.858.155-11.886-.032" transform="translate(-73.715 -650.248)" fill="#c7112b"/><path d="M0,226.181l.043.9c3.444,1.161,5.992,3.322,6.388,7.887h1.13L7.383,218.34l-.968.006C6.276,222.184,4.105,224.994,0,226.181Z" transform="translate(0 -204.251)" fill="#c7112b"/><path d="M710,2a6.956,6.956,0,0,1,0,.914c6.517-.218,6.517,6.133,4.346,13.181h.876c2.855-6.388,5.678-12.923,10.029-13.208V2.074Z" transform="translate(-664.187 -1.871)" fill="#c7112b"/><path d="M997.24,574.87h1.409v8.637h5.34v1.226H997.24Z" transform="translate(-932.892 -537.776)" fill="#c7112b"/><path d="M1134.1,583.507v1.226h-7.158V574.87h6.96V576.1h-5.549v3.033h4.945v1.2h-4.945v3.184Z" transform="translate(-1054.223 -537.776)" fill="#c7112b"/><path d="M1254.572,576.1h-3.382V574.87h8.158V576.1h-3.382v8.637h-1.394Z" transform="translate(-1170.456 -537.776)" fill="#c7112b"/><path d="M1396.759,565.348a2.746,2.746,0,0,1-.225,1l-.676,1.973h-.885l.521-2.1a.9.9,0,0,1-.592-.874.922.922,0,0,1,.944-.958A.905.905,0,0,1,1396.759,565.348Z" transform="translate(-1304.894 -527.972)" fill="#c7112b"/><path d="M1445.09,582.016l.521-1.1a5.073,5.073,0,0,0,3.255,1.141c1.705,0,2.438-.662,2.438-1.522,0-2.409-5.974-.888-5.974-4.551,0-1.521,1.183-2.818,3.776-2.818a5.8,5.8,0,0,1,3.17.873l-.465,1.127a5.1,5.1,0,0,0-2.706-.8c-1.678,0-2.4.7-2.4,1.563,0,2.409,5.974.9,5.974,4.523,0,1.507-1.211,2.8-3.818,2.8A5.87,5.87,0,0,1,1445.09,582.016Z" transform="translate(-1351.844 -536.186)" fill="#c7112b"/><path d="M1648.634,578.08h1.355v3.844a5.831,5.831,0,0,1-3.734,1.254,5.049,5.049,0,1,1,.028-10.088,4.942,4.942,0,0,1,3.79,1.521l-.879.876a3.909,3.909,0,0,0-2.86-1.141,3.793,3.793,0,1,0-.014,7.581,4.173,4.173,0,0,0,2.311-.634Z" transform="translate(-1535.113 -536.111)" fill="#c7112b"/><path d="M1828.593,584.733l-2.13-3.029c-.2.014-.409.028-.62.028h-2.438v3H1822V574.87h3.846c2.564,0,4.114,1.3,4.114,3.438a3.113,3.113,0,0,1-2.17,3.114l2.34,3.311Zm-.043-6.425c0-1.408-.944-2.212-2.748-2.212h-2.4v4.438h2.4c1.8,0,2.748-.816,2.748-2.226Z" transform="translate(-1704.433 -537.776)" fill="#c7112b"/><path d="M1968.28,578.174a5.245,5.245,0,1,1,5.255,5.044A5.013,5.013,0,0,1,1968.28,578.174Zm9.074,0a3.833,3.833,0,1,0-3.818,3.788A3.7,3.7,0,0,0,1977.354,578.174Z" transform="translate(-1841.275 -536.148)" fill="#c7112b"/><path d="M2158.363,574.87l-3.3,9.863h-1.48l-2.691-7.876-2.691,7.876H2146.7l-3.3-9.863h1.452l2.663,8.017,2.774-8.017h1.3l2.719,8.059,2.719-8.059Z" transform="translate(-2005.095 -537.776)" fill="#c7112b"/><path d="M2445.282,576.1H2441.9V574.87h8.158V576.1h-3.381v8.637h-1.4Z" transform="translate(-2284.334 -537.776)" fill="#c7112b"/><path d="M2577.51,578.174a5.245,5.245,0,1,1,5.255,5.044A5.012,5.012,0,0,1,2577.51,578.174Zm9.074,0a3.833,3.833,0,1,0-3.816,3.788A3.7,3.7,0,0,0,2586.584,578.174Z" transform="translate(-2411.194 -536.148)" fill="#c7112b"/><path d="M2768.6,578.08h1.355v3.844a5.829,5.829,0,0,1-3.733,1.254,5.049,5.049,0,1,1,.028-10.088,4.942,4.942,0,0,1,3.79,1.521l-.877.876a3.908,3.908,0,0,0-2.86-1.141,3.793,3.793,0,1,0-.014,7.581,4.173,4.173,0,0,0,2.311-.634Z" transform="translate(-2582.816 -536.111)" fill="#c7112b"/><path d="M2949.154,583.507v1.226H2942V574.87h6.96V576.1h-5.549v3.033h4.946v1.2h-4.946v3.184Z" transform="translate(-2752.164 -537.776)" fill="#c7112b"/><path d="M3069.581,576.1H3066.2V574.87h8.158V576.1h-3.382v8.637h-1.4Z" transform="translate(-2868.35 -537.776)" fill="#c7112b"/><path d="M3224.875,574.87v9.863h-1.412v-4.4H3217.8v4.4h-1.409V574.87h1.409v4.241h5.664V574.87Z" transform="translate(-3008.849 -537.776)" fill="#c7112b"/><path d="M3400.9,583.507v1.226h-7.157V574.87h6.96V576.1h-5.549v3.033h4.946v1.2h-4.946v3.184Z" transform="translate(-3174.756 -537.776)" fill="#c7112b"/><path d="M3546.6,584.733l-2.129-3.029c-.2.014-.408.028-.62.028h-2.437v3H3540V574.87h3.846c2.564,0,4.114,1.3,4.114,3.438a3.113,3.113,0,0,1-2.17,3.114l2.34,3.311Zm-.042-6.425c0-1.408-.944-2.212-2.748-2.212h-2.4v4.438h2.4c1.807,0,2.748-.816,2.748-2.226Z" transform="translate(-3311.578 -537.776)" fill="#c7112b"/><path d="M986.45,487.323q21.6-.2,43.209-.251l10.8-.031,10.8-.023,21.6-.018,21.6.017,10.8.023,10.8.031q21.6.071,43.209.252-21.6.2-43.209.252l-10.8.031-10.8.023-21.6.017-21.6-.018-10.8-.023-10.8-.031Q1008.055,487.5,986.45,487.323Z" transform="translate(-922.798 -455.576)" fill="#c7112b"/><path d="M1004.678,9.763h.774V16.03h-.774a3.677,3.677,0,0,0-1.02-2.065,5.284,5.284,0,0,0-2.616-.417h-6.449v9.23a1.79,1.79,0,0,0,.432,1.363,2.172,2.172,0,0,0,1.474.4h4.543a14.322,14.322,0,0,0,3.369-.264,3.279,3.279,0,0,0,1.574-.979,9.34,9.34,0,0,0,1.374-2.323h.774l-1.2,4.815H988.21v-.741a2.646,2.646,0,0,0,2.349-.891,6,6,0,0,0,.6-3.159V4.863a5.989,5.989,0,0,0-.62-3.235,2.669,2.669,0,0,0-2.327-.88V0h18.729V4.31h-.487a4.356,4.356,0,0,0-1.141-2.452,5.656,5.656,0,0,0-3.226-.6h-7.491V12.292h7.271a2.936,2.936,0,0,0,2.028-.528A3.658,3.658,0,0,0,1004.678,9.763Z" transform="translate(-924.445)" fill="#c7112b"/><path d="M1335.388,145.85v3.188q2.814-3.188,5.807-3.188a5.222,5.222,0,0,1,3.879,1.574,5.649,5.649,0,0,1,1.549,4.15v7.2a3.079,3.079,0,0,0,.554,2.18,3.235,3.235,0,0,0,2.172.528v.747h-8.575v-.747a4.11,4.11,0,0,0,2.183-.408,1.8,1.8,0,0,0,.587-1.574v-8.346a3.567,3.567,0,0,0-1.009-2.665,3.524,3.524,0,0,0-2.581-.991q-2.258,0-4.566,3.122v7.8a4.013,4.013,0,0,0,.516,2.522,3.082,3.082,0,0,0,2.166.54v.747H1329.6v-.747q1.84,0,2.258-.585a4.826,4.826,0,0,0,.421-2.481v-9a2.539,2.539,0,0,0-.51-1.885,3.532,3.532,0,0,0-2.173-.452v-.748l5.009-.483Z" transform="translate(-1243.806 -136.439)" fill="#c7112b"/><path d="M1657.588,145.85v3.188q2.814-3.188,5.807-3.188a5.221,5.221,0,0,1,3.879,1.574,5.663,5.663,0,0,1,1.552,4.15v7.2a3.082,3.082,0,0,0,.554,2.18,3.235,3.235,0,0,0,2.173.528v.747h-8.576v-.747a4.11,4.11,0,0,0,2.184-.408,1.8,1.8,0,0,0,.587-1.574v-8.346a3.568,3.568,0,0,0-1.008-2.665,3.525,3.525,0,0,0-2.581-.991q-2.258,0-4.565,3.122v7.8a4.013,4.013,0,0,0,.516,2.522,3.083,3.083,0,0,0,2.166.54v.747H1651.8v-.747q1.84,0,2.258-.585a4.827,4.827,0,0,0,.421-2.481v-9a2.539,2.539,0,0,0-.51-1.885,3.533,3.533,0,0,0-2.173-.452v-.748l5.009-.483Z" transform="translate(-1545.216 -136.439)" fill="#c7112b"/><path d="M1912.249,0V.792q-2.863,0-4.726,5.013l-7.672,20.339h-.737l-8.052-20.933a11.1,11.1,0,0,0-1.953-3.661,3.5,3.5,0,0,0-2.351-.8V0h9.442V.748q-2.276,0-2.276,1.736a3.578,3.578,0,0,0,.288,1.3l6.365,16.648,6.038-16.072a5.334,5.334,0,0,0,.377-1.782q0-1.825-2.323-1.825V0Z" transform="translate(-1765.015)" fill="#c7112b"/><path d="M2296.052,26.3h.774V39.73a2.133,2.133,0,0,0,.576,1.762,3.65,3.65,0,0,0,2.106.441v.747h-8.8v-.747a4.6,4.6,0,0,0,2.482-.43,2.184,2.184,0,0,0,.554-1.775V29.912a2.624,2.624,0,0,0-.51-1.918,4.3,4.3,0,0,0-2.526-.463v-.748Zm-.71-8.246a1.893,1.893,0,0,1,1.388.561,1.86,1.86,0,0,1,.564,1.374,1.914,1.914,0,0,1-.576,1.4,1.865,1.865,0,0,1-1.374.581,1.966,1.966,0,0,1-1.42-.581,1.881,1.881,0,0,1-.6-1.4,1.824,1.824,0,0,1,.587-1.374,1.994,1.994,0,0,1,1.428-.561Z" transform="translate(-2142.9 -16.888)" fill="#c7112b"/><path d="M2479.468,145.775v4.9h-.909a4.76,4.76,0,0,0-1.33-2.936,3.689,3.689,0,0,0-2.682-1.088,2.965,2.965,0,0,0-1.929.594,1.935,1.935,0,0,0-.731,1.583,2.442,2.442,0,0,0,.676,1.7,9.962,9.962,0,0,0,2.937,1.77,10.508,10.508,0,0,1,3.868,2.529,4.577,4.577,0,0,1,.941,2.9,4.667,4.667,0,0,1-1.507,3.463,4.949,4.949,0,0,1-3.569,1.462,7.489,7.489,0,0,1-2.814-.77,4.232,4.232,0,0,0-1.263-.417.932.932,0,0,0-.71.308,1.265,1.265,0,0,0-.332.77h-.774v-5.433h.774a5.855,5.855,0,0,0,1.862,3.4,4.873,4.873,0,0,0,3.3,1.259,2.755,2.755,0,0,0,2.006-.792,2.635,2.635,0,0,0,.809-1.96,2.816,2.816,0,0,0-.745-1.949,10.18,10.18,0,0,0-3.226-1.907,10.482,10.482,0,0,1-3.678-2.269,3.827,3.827,0,0,1-.885-2.553,4.265,4.265,0,0,1,1.452-3.226,4.88,4.88,0,0,1,3.446-1.355,5.408,5.408,0,0,1,2.017.439,3.593,3.593,0,0,0,1.263.308,1.016,1.016,0,0,0,.953-.747Z" transform="translate(-2310.002 -136.364)" fill="#c7112b"/><path d="M2677.341,26.3h.774V39.73a2.133,2.133,0,0,0,.576,1.762,3.65,3.65,0,0,0,2.106.441v.747H2672v-.747a4.6,4.6,0,0,0,2.482-.43,2.186,2.186,0,0,0,.554-1.775V29.911a2.624,2.624,0,0,0-.51-1.918A4.3,4.3,0,0,0,2672,27.53v-.748Zm-.71-8.246a1.893,1.893,0,0,1,1.385.561,1.861,1.861,0,0,1,.564,1.374,1.915,1.915,0,0,1-.576,1.4,1.865,1.865,0,0,1-1.374.581,1.965,1.965,0,0,1-1.42-.581,1.881,1.881,0,0,1-.6-1.4,1.826,1.826,0,0,1,.587-1.374,2,2,0,0,1,1.431-.561Z" transform="translate(-2499.586 -16.888)" fill="#c7112b"/><path d="M2865.421,154.275a7.979,7.979,0,0,1-2.516,6.014,9.4,9.4,0,0,1-12.568,0,8.511,8.511,0,0,1-.012-12.072,9.433,9.433,0,0,1,12.59,0A8.055,8.055,0,0,1,2865.421,154.275Zm-3.347.011a9.42,9.42,0,0,0-1.463-5.5,4.88,4.88,0,0,0-7.979-.044,11.172,11.172,0,0,0-.011,11.034,4.917,4.917,0,0,0,8-.023,9.329,9.329,0,0,0,1.452-5.46Z" transform="translate(-2664.062 -136.401)" fill="#c7112b"/><path d="M3157.938,145.85v3.188q2.815-3.188,5.808-3.188a5.222,5.222,0,0,1,3.878,1.574,5.658,5.658,0,0,1,1.551,4.15v7.2a3.082,3.082,0,0,0,.554,2.18,3.235,3.235,0,0,0,2.173.528v.747h-8.579v-.747a4.111,4.111,0,0,0,2.184-.408,1.8,1.8,0,0,0,.587-1.574v-8.346a3.568,3.568,0,0,0-1.009-2.665,3.523,3.523,0,0,0-2.581-.991q-2.259,0-4.565,3.122v7.8a4.016,4.016,0,0,0,.516,2.522,3.083,3.083,0,0,0,2.166.54v.747h-8.468v-.747q1.839,0,2.258-.585a4.814,4.814,0,0,0,.421-2.481v-9a2.539,2.539,0,0,0-.51-1.885,3.533,3.533,0,0,0-2.173-.452v-.748l5.009-.483Z" transform="translate(-2948.754 -136.439)" fill="#c7112b"/><path d="M3505.158,145.775v4.9h-.909a4.76,4.76,0,0,0-1.33-2.936,3.689,3.689,0,0,0-2.682-1.088,2.966,2.966,0,0,0-1.928.594,1.935,1.935,0,0,0-.732,1.583,2.442,2.442,0,0,0,.676,1.7,9.962,9.962,0,0,0,2.937,1.77,10.493,10.493,0,0,1,3.868,2.529,4.589,4.589,0,0,1,.942,2.9,4.667,4.667,0,0,1-1.507,3.463,4.949,4.949,0,0,1-3.568,1.462,7.492,7.492,0,0,1-2.814-.77,4.222,4.222,0,0,0-1.264-.417.932.932,0,0,0-.71.308,1.267,1.267,0,0,0-.333.77h-.774v-5.432h.774a5.863,5.863,0,0,0,1.862,3.4,4.871,4.871,0,0,0,3.3,1.259,2.754,2.754,0,0,0,2.006-.792,2.635,2.635,0,0,0,.809-1.96,2.816,2.816,0,0,0-.745-1.949,10.194,10.194,0,0,0-3.227-1.907,10.465,10.465,0,0,1-3.678-2.269,3.833,3.833,0,0,1-.885-2.553,4.267,4.267,0,0,1,1.451-3.226,4.88,4.88,0,0,1,3.447-1.355,5.406,5.406,0,0,1,2.017.439,3.6,3.6,0,0,0,1.263.308,1.02,1.02,0,0,0,.953-.747Z" transform="translate(-3269.509 -136.364)" fill="#c7112b"/></svg>