<svg xmlns="http://www.w3.org/2000/svg" width="58.781" height="58.301" viewBox="0 0 58.781 58.301">
  <g id="ic_logo" transform="translate(-34.02 -12.62)">
    <g id="Group_20389" data-name="Group 20389" transform="translate(34.02 12.62)">
      <path id="Path_35582" data-name="Path 35582" d="M34.02,42.788h8.873L63.41,22.282V12.62Z" transform="translate(-34.02 -12.62)" fill="#231f20"/>
      <path id="Path_35583" data-name="Path 35583" d="M453.7,34.67V14.789h-6.787V27.7L432.22,12.62v9.662l20.517,20.506h8.873Z" transform="translate(-402.83 -12.62)" fill="#00b0e9"/>
    </g>
    <g id="Group_20390" data-name="Group 20390" transform="translate(34.02 45.749)">
      <path id="Path_35584" data-name="Path 35584" d="M34.02,461.48h2.159v8.306h4.168V461.48h2.129v20.03H40.347v-9.774H36.179v9.775H34.02Z" transform="translate(-34.02 -461.48)" fill="#231f20"/>
      <path id="Path_35585" data-name="Path 35585" d="M188.844,530.7v7.6c0,2.64-1.106,3.971-3.34,3.971-2.346,0-3.2-1.489-3.2-3.949V530.7c0-2.549,1.174-3.9,3.295-3.9C187.828,526.8,188.844,528.335,188.844,530.7Zm-4.9-.067v7.807c0,1.715.609,2.369,1.624,2.369,1.061,0,1.625-.655,1.625-2.437v-7.739c0-1.6-.542-2.369-1.647-2.369C184.466,528.267,183.947,528.989,183.947,530.636Z" transform="translate(-171.356 -521.979)" fill="#231f20"/>
      <path id="Path_35586" data-name="Path 35586" d="M297.012,529.56v11.711c0,1.241.429,2.1,1.579,2.1s1.534-.813,1.534-2.076V529.56h1.624v11.665c0,2.324-1.061,3.61-3.2,3.61-2.076,0-3.136-1.173-3.136-3.565V529.56Z" transform="translate(-276.117 -524.535)" fill="#231f20"/>
      <path id="Path_35587" data-name="Path 35587" d="M402.472,537.841v.88c0,1.421.5,2.166,1.557,2.166,1.083,0,1.489-.768,1.489-2.437,0-1.76-.384-2.437-1.963-3.678-1.625-1.264-2.437-2.031-2.437-4.242,0-1.917.587-3.746,2.933-3.723,2.256,0,2.843,1.489,2.843,3.407v.7h-1.6v-.655c0-1.241-.226-2.053-1.264-2.053s-1.309.9-1.309,2.076c0,1.4.293,1.94,1.67,2.978,2.1,1.58,2.753,2.482,2.753,4.964,0,2.121-.609,4.062-3.159,4.062-2.414,0-3.114-1.6-3.114-3.588v-.858Z" transform="translate(-373.794 -521.985)" fill="#231f20"/>
      <path id="Path_35588" data-name="Path 35588" d="M512.537,537.344h-3.385v5.821h3.836l-.2,1.467H507.55V529.56h5.167v1.49h-3.565v4.806h3.385Z" transform="translate(-472.6 -524.535)" fill="#231f20"/>
      <path id="Path_35589" data-name="Path 35589" d="M610.219,461.48v15.562c0,1.649.57,2.788,2.1,2.788s2.039-1.08,2.039-2.759V461.48h2.159v15.5c0,3.089-1.409,4.8-4.258,4.8-2.759,0-4.168-1.56-4.168-4.738V461.48Z" transform="translate(-565.719 -461.48)" fill="#231f20"/>
      <path id="Path_35590" data-name="Path 35590" d="M749.99,533.12H752.7c2.185,0,3.222,1.1,3.222,3.487v.9c0,2.207-.662,3.84-3.332,3.84H751.58v6.51h-1.589V533.12Zm1.589,6.908h.861c1.677,0,1.92-1.015,1.92-2.538V536.7c0-1.192-.265-2.251-1.788-2.251h-.993v5.584Z" transform="translate(-697.146 -527.832)" fill="#231f20"/>
    </g>
    <g id="Group_20391" data-name="Group 20391" transform="translate(91.233 64.584)">
      <path id="Path_35591" data-name="Path 35591" d="M810.688,717.4a.749.749,0,1,1-.747-.729A.733.733,0,0,1,810.688,717.4Zm-1.312,0a.565.565,0,0,0,.569.582.583.583,0,0,0,0-1.165A.567.567,0,0,0,809.376,717.4Zm.449.382h-.169v-.729a1.487,1.487,0,0,1,.28-.022.454.454,0,0,1,.253.053.2.2,0,0,1,.071.16.187.187,0,0,1-.151.169v.009a.215.215,0,0,1,.134.178.525.525,0,0,0,.054.182h-.182a.633.633,0,0,1-.058-.178c-.013-.08-.057-.116-.151-.116h-.08v.294Zm0-.413h.08c.094,0,.169-.031.169-.107s-.049-.112-.156-.112a.41.41,0,0,0-.094.009v.21Z" transform="translate(-809.19 -716.67)" fill="#231f20"/>
    </g>
    <g id="Group_20392" data-name="Group 20392" transform="translate(34.247 67.669)">
      <path id="Path_35592" data-name="Path 35592" d="M37.09,759.58h1.458c.843,0,1.168.252,1.168.779a.652.652,0,0,1-.616.684v.012a.747.747,0,0,1,.731.753c0,.462-.338.86-1.176.86H37.09Zm.445,1.3h1.137c.372,0,.6-.141.6-.47,0-.287-.141-.479-.748-.479h-.988Zm0,1.437H38.6c.6,0,.761-.235.761-.534,0-.355-.244-.552-.787-.552H37.535Z" transform="translate(-37.09 -759.498)" fill="#231f20"/>
      <path id="Path_35593" data-name="Path 35593" d="M96.66,759.58H97.1v1.844a1.442,1.442,0,0,1-2.874,0V759.58h.445v1.865a.993.993,0,0,0,1.985,0Z" transform="translate(-90.013 -759.498)" fill="#231f20"/>
      <path id="Path_35594" data-name="Path 35594" d="M150.867,762.659v-1.288l-1.467-1.8h.573L151.089,761l1.117-1.433h.573l-1.467,1.8v1.288Z" transform="translate(-141.111 -759.489)" fill="#231f20"/>
      <path id="Path_35595" data-name="Path 35595" d="M240.634,770.01a.774.774,0,1,1-.774.774A.774.774,0,0,1,240.634,770.01Z" transform="translate(-224.894 -769.158)" fill="#231f20"/>
      <path id="Path_35596" data-name="Path 35596" d="M311.05,759.373c-.043-.432-.483-.552-.984-.552-.441,0-.813.218-.813.56,0,.167.1.338.483.4l1.151.2c.5.086.731.372.731.753,0,.616-.552.988-1.467.988-.877,0-1.385-.326-1.441-1.005h.471c.013.415.41.655,1,.655.641,0,1-.252,1-.59,0-.855-2.366-.081-2.366-1.373,0-.595.5-.937,1.347-.937.641,0,1.322.192,1.365.9Z" transform="translate(-288.662 -758.47)" fill="#231f20"/>
      <path id="Path_35597" data-name="Path 35597" d="M367.521,759.58h2.309v.35h-1.865v.975h1.746v.351h-1.746v1.061h1.916v.351H367.52V759.58Z" transform="translate(-343.132 -759.498)" fill="#231f20"/>
      <path id="Path_35598" data-name="Path 35598" d="M420.44,759.58h.445v2.737h1.779v.351H420.44Z" transform="translate(-392.146 -759.498)" fill="#231f20"/>
      <path id="Path_35599" data-name="Path 35599" d="M468.37,759.58h.445v2.737h1.78v.351H468.37Z" transform="translate(-436.538 -759.498)" fill="#231f20"/>
      <path id="Path_35600" data-name="Path 35600" d="M544.764,770.01a.774.774,0,1,1-.774.774A.774.774,0,0,1,544.764,770.01Z" transform="translate(-506.577 -769.158)" fill="#231f20"/>
      <path id="Path_35601" data-name="Path 35601" d="M614.965,762.668h-.445V759.58h1.518c.954,0,1.168.321,1.168.817a.737.737,0,0,1-.706.719v.008c.415.052.526.219.607.74a3.714,3.714,0,0,0,.175.8h-.471c-.081-.219-.129-.65-.21-1-.052-.222-.2-.381-.779-.381h-.86v1.377Zm0-1.728h1.013c.47,0,.757-.111.757-.5,0-.376-.205-.5-.748-.5h-1.022Z" transform="translate(-571.901 -759.498)" fill="#231f20"/>
      <path id="Path_35602" data-name="Path 35602" d="M671.651,759.58h2.309v.35H672.1v.975h1.746v.351H672.1v1.061h1.916v.351H671.65V759.58Z" transform="translate(-624.815 -759.498)" fill="#231f20"/>
      <path id="Path_35603" data-name="Path 35603" d="M725.8,759.58h.444v3.088h-.607l-1.89-2.635h-.009v2.635h-.445V759.58h.607l1.89,2.635h.009V759.58Z" transform="translate(-672.643 -759.498)" fill="#231f20"/>
      <path id="Path_35604" data-name="Path 35604" d="M780.3,759.956H778.99v-.376h3.062v.376h-1.309v2.712H780.3Z" transform="translate(-724.232 -759.498)" fill="#231f20"/>
    </g>
  </g>
</svg>
