<svg xmlns="http://www.w3.org/2000/svg" width="20.154" height="20.091" viewBox="0 0 20.154 20.091"><g transform="translate(0 -0.004)"><g transform="translate(0 0.004)"><path d="M0,7.97a3.481,3.481,0,0,1,.388-.454Q4.57,4.019,8.76.534a1.9,1.9,0,0,1,2.64,0q1.918,1.6,3.84,3.2c.05.042.1.082.173.139a1.569,1.569,0,0,0,.017-.16c0-.315,0-.63,0-.944a.628.628,0,0,1,1.256,0q.01,1,0,2.007a.323.323,0,0,0,.133.281c1.006.832,2.007,1.67,3.012,2.5a.742.742,0,0,1,.317.479.629.629,0,0,1-.979.6c-.085-.056-.163-.124-.274-.209v.26q0,4.723,0,9.447a1.874,1.874,0,0,1-1.4,1.883,2.148,2.148,0,0,1-.544.067q-6.869.006-13.737,0a1.885,1.885,0,0,1-1.949-1.949q0-3.7,0-7.4a.636.636,0,1,1,1.259-.006v7.341c0,.521.234.755.756.756H6.3V12.029A1.893,1.893,0,0,1,8.3,10.017q1.781,0,3.562,0a1.891,1.891,0,0,1,1.989,1.989q0,3.287,0,6.573v.245c.078,0,.141.009.205.009h2.834a.646.646,0,0,0,.739-.733q0-5.275,0-10.549a.347.347,0,0,0-.139-.3q-3.465-2.881-6.925-5.767a.659.659,0,0,0-1,.006L1.216,8.461c-.066.055-.129.111-.2.162A.627.627,0,0,1,.065,8.4C.044,8.364.022,8.325,0,8.285ZM12.6,18.825V12.006a.643.643,0,0,0-.723-.729H8.312c-.524,0-.754.23-.754.756v6.792Z" transform="translate(0 -0.004)" fill="#c7112b"/><path d="M168.308,274.27a.629.629,0,1,1-.628.625A.634.634,0,0,1,168.308,274.27Z" transform="translate(-158.862 -259.848)" fill="#c7112b"/></g></g></svg>