<svg xmlns="http://www.w3.org/2000/svg" width="14.404" height="15.101" viewBox="0 0 14.404 15.101"><g transform="translate(-590.9 -821.4)"><path d="M598.1,840.16a2.34,2.34,0,0,1-2.338-2.338v-.443H592.89a2,2,0,0,1-1.99-1.99,2.01,2.01,0,0,1,1.782-1.978,1.412,1.412,0,0,1,.208-.011h10.426a1.431,1.431,0,0,1,.2.011,1.909,1.909,0,0,1,1.2.576,1.978,1.978,0,0,1,.576,1.577,2.043,2.043,0,0,1-2.058,1.817h-2.8v.443A2.34,2.34,0,0,1,598.1,840.16Zm-5.256-5.56-.029,0a.8.8,0,0,0-.717.786.759.759,0,0,0,.228.55l.012.012a.759.759,0,0,0,.55.228h3.475a.6.6,0,0,1,.6.6v1.043a1.138,1.138,0,1,0,2.275,0V836.78a.6.6,0,0,1,.6-.6h3.4a.836.836,0,0,0,.862-.716.77.77,0,0,0-.224-.624l-.012-.012a.727.727,0,0,0-.467-.223l-.039,0H592.847Z" transform="translate(0 -3.66)" fill="#c7112b"/><path d="M594.9,821.4h7.215a2.682,2.682,0,0,1,2.67,2.94l-.333,6.041a.6.6,0,0,1-.688.56H593.247a.6.6,0,0,1-.688-.56l-.333-6.041a2.683,2.683,0,0,1,2.67-2.94Zm8.385,8.341.3-5.48c0-.009,0-.018,0-.028a1.483,1.483,0,0,0-1.474-1.633H594.9a1.483,1.483,0,0,0-1.474,1.633c0,.009,0,.018,0,.028l.3,5.48Z" transform="translate(-0.401)" fill="#c7112b"/><path d="M596.99,826.075a.6.6,0,0,1-.6-.6V822a.6.6,0,0,1,1.2,0v3.475A.6.6,0,0,1,596.99,826.075Z" transform="translate(-1.674)" fill="#c7112b"/><path d="M601,823.99a.6.6,0,0,1-.6-.6V822a.6.6,0,0,1,1.2,0v1.39A.6.6,0,0,1,601,823.99Z" transform="translate(-2.897)" fill="#c7112b"/></g></svg>