<svg xmlns="http://www.w3.org/2000/svg" width="19.762" height="19.098" viewBox="0 0 19.762 19.098"><g transform="translate(0.1 0.1)"><g transform="translate(0 0)"><path d="M19.513,10.774a1.284,1.284,0,0,1-.85.946c-.047.016-.079.1-.1.166q-.486,1.644-.966,3.289a2.791,2.791,0,0,1-1.775,1.941,8.133,8.133,0,0,1-.915.228c.009.02.026.069.049.116.138.271.281.539.415.811a.4.4,0,0,1-.179.581.414.414,0,0,1-.548-.23c-.2-.384-.4-.77-.594-1.159A.249.249,0,0,0,13.8,17.3q-4.053.007-8.105,0a.236.236,0,0,0-.248.148c-.2.4-.4.8-.613,1.191a.4.4,0,1,1-.713-.375c.131-.26.267-.518.4-.778.027-.053.05-.109.061-.135a9.276,9.276,0,0,1-1-.278,2.7,2.7,0,0,1-1.654-1.818c-.336-1.118-.662-2.239-.99-3.359a.29.29,0,0,0-.194-.219A1.169,1.169,0,0,1-.008,10.45,1.194,1.194,0,0,1,1.036,9.423a2.549,2.549,0,0,1,.342-.017H17.062c0-.064.007-.111.007-.159q0-3.833,0-7.667A.727.727,0,0,0,16.4.792a.657.657,0,0,0-.548.163c-.347.334-.681.68-1.037,1.037.271.177.219.439.157.715-.123.548-.232,1.1-.343,1.649a.417.417,0,0,1-.738.223C13.1,3.788,12.307,3,11.519,2.2a.388.388,0,0,1,.229-.692c.663-.115,1.325-.231,1.993-.313a1.573,1.573,0,0,1,.54.16c.266-.258.577-.567.893-.869a1.573,1.573,0,0,1,1.95-.27,1.425,1.425,0,0,1,.744,1.142,3.226,3.226,0,0,1,.011.333q0,3.732,0,7.463v.251h.287a1.222,1.222,0,0,1,1.315.952.241.241,0,0,0,.028.047v.37ZM1.748,11.783c.021.077.035.136.053.194.242.824.481,1.648.729,2.47a5.526,5.526,0,0,0,.336.979,1.986,1.986,0,0,0,1.889,1.09q4.662,0,9.325,0c.254,0,.509.005.763,0A1.976,1.976,0,0,0,16.726,15.2c.233-.664.412-1.346.613-2.021.137-.461.271-.922.41-1.395h-16Zm7.987-.793H18.03a1.946,1.946,0,0,0,.341-.023.368.368,0,0,0,.309-.451c-.041-.206-.2-.316-.467-.32-.317,0-.635,0-.952,0H1.359a1.247,1.247,0,0,0-.246.023.38.38,0,0,0,.006.749,2,2,0,0,0,.341.023q4.137,0,8.275,0Zm4.238-7.465c.071-.339.136-.639.193-.941a.193.193,0,0,0-.044-.147c-.123-.132-.256-.256-.388-.38a.165.165,0,0,0-.113-.05c-.323.047-.644.1-1,.16l1.355,1.358Z" transform="translate(0.018 0.008)" fill="#c7112b"/><path d="M4.451,18.99a.506.506,0,0,1-.423-.768c.079-.156.159-.312.24-.467l.16-.311.011-.022-.208-.051a5.061,5.061,0,0,1-.694-.2,2.8,2.8,0,0,1-1.712-1.882c-.285-.95-.568-1.917-.841-2.852l-.149-.508A.192.192,0,0,0,.7,11.774a1.269,1.269,0,0,1-.808-1.338A1.287,1.287,0,0,1,1.022,9.324a2.661,2.661,0,0,1,.356-.018h15.59c0-.02,0-.04,0-.059V6.691q0-2.556,0-5.111a.63.63,0,0,0-.577-.688.558.558,0,0,0-.467.136c-.241.233-.473.467-.719.716l-.238.24a.733.733,0,0,1,.105.746c-.105.469-.2.948-.295,1.411l-.047.236a.517.517,0,0,1-.906.274l-.283-.282c-.688-.686-1.4-1.395-2.095-2.1a.519.519,0,0,1-.154-.521.53.53,0,0,1,.438-.34l.052-.009c.636-.11,1.293-.225,1.946-.3a.814.814,0,0,1,.4.093c.043.018.086.036.131.052l.221-.217c.2-.2.412-.4.629-.61A1.75,1.75,0,0,1,16.32-.108a1.71,1.71,0,0,1,.855.237,1.516,1.516,0,0,1,.794,1.219,3.32,3.32,0,0,1,.012.343q0,2.488,0,4.976V9.305h.187a1.322,1.322,0,0,1,1.41,1.019l.006.009.012.019.014.024v.3h.032l-.035.127a1.379,1.379,0,0,1-.9,1.011.335.335,0,0,0-.042.1c-.382,1.291-.688,2.336-.966,3.289a2.9,2.9,0,0,1-1.836,2.007,4.322,4.322,0,0,1-.629.166l-.182.039h0c.049.1.1.19.147.286.089.172.181.35.268.527a.557.557,0,0,1,.042.438.487.487,0,0,1-.269.278.493.493,0,0,1-.2.045.54.54,0,0,1-.473-.319c-.232-.441-.421-.81-.6-1.161A.152.152,0,0,0,13.8,17.4c-1.3,0-2.663,0-4.052,0l-4.055,0a.14.14,0,0,0-.158.093c-.219.442-.42.833-.614,1.195A.535.535,0,0,1,4.451,18.99Zm4.6-9.484H1.378a2.488,2.488,0,0,0-.329.016,1.091,1.091,0,0,0-.958.942,1.067,1.067,0,0,0,.682,1.124.389.389,0,0,1,.254.284l.149.508c.273.935.556,1.9.841,2.85a2.606,2.606,0,0,0,1.595,1.754,4.836,4.836,0,0,0,.667.193c.107.026.217.052.326.082l.113.031-.058.131c-.012.029-.031.073-.053.115l-.161.312c-.08.155-.16.31-.239.466a.3.3,0,0,0,.024.373.3.3,0,0,0,.221.1.339.339,0,0,0,.292-.195c.193-.359.393-.748.611-1.188a.334.334,0,0,1,.338-.2l4.055,0c1.389,0,2.751,0,4.05,0a.348.348,0,0,1,.348.217c.173.35.362.717.593,1.157a.319.319,0,0,0,.418.185.292.292,0,0,0,.164-.163.364.364,0,0,0-.033-.283c-.086-.175-.177-.352-.266-.523q-.074-.143-.148-.287c-.019-.038-.034-.076-.044-.1l-.008-.02-.047-.109.115-.028c.1-.025.2-.046.3-.067a4.176,4.176,0,0,0,.6-.157A2.7,2.7,0,0,0,17.5,15.148c.277-.954.584-2,.966-3.289.04-.136.089-.208.161-.232a1.171,1.171,0,0,0,.78-.861v-.331a.194.194,0,0,1-.023-.047,1.12,1.12,0,0,0-1.22-.882h-.387V6.667q0-2.488,0-4.976a3.121,3.121,0,0,0-.011-.323A1.326,1.326,0,0,0,17.076.3,1.513,1.513,0,0,0,16.32.092a1.554,1.554,0,0,0-1.076.466c-.216.206-.425.411-.627.609l-.266.26-.043.042-.057-.018c-.073-.023-.139-.05-.2-.077a.657.657,0,0,0-.295-.079c-.648.08-1.3.193-1.936.3l-.052.009a.332.332,0,0,0-.281.2.321.321,0,0,0,.106.319c.694.7,1.406,1.411,2.094,2.1l.283.282a.318.318,0,0,0,.569-.172l.047-.236c.093-.465.19-.945.3-1.416.065-.289.094-.474-.114-.609l-.1-.067.087-.087.316-.319c.246-.249.479-.485.722-.719a.759.759,0,0,1,.628-.19.825.825,0,0,1,.754.887q0,2.556,0,5.112V9.246c0,.033,0,.065,0,.1,0,.019,0,.039,0,.061l0,.1Zm5.482,7.114-.453,0H4.755a2.1,2.1,0,0,1-1.978-1.144,4.091,4.091,0,0,1-.282-.783c-.02-.071-.041-.143-.062-.213-.179-.594-.356-1.2-.528-1.784l-.2-.686c-.011-.039-.022-.078-.033-.122H1.582l.077-.147.068.036.02,0v-.087H17.883l-.15.512c-.1.34-.2.676-.3,1.012-.058.194-.113.388-.169.583-.137.475-.278.967-.445,1.443a2.088,2.088,0,0,1-1.976,1.384C14.753,16.618,14.654,16.619,14.533,16.619Zm-.453-.2.453,0c.119,0,.216,0,.306,0a1.869,1.869,0,0,0,1.793-1.25c.165-.47.305-.959.441-1.431.056-.2.112-.39.17-.584.1-.335.2-.671.3-1.011l.075-.255H1.878c.006.023.012.044.018.066l.2.687c.171.585.348,1.189.527,1.783.022.072.042.144.063.216a3.942,3.942,0,0,0,.267.745,1.884,1.884,0,0,0,1.8,1.037h9.325ZM6.4,11.09H1.46a2.1,2.1,0,0,1-.358-.025.48.48,0,0,1-.009-.945,1.346,1.346,0,0,1,.266-.025H17.816c.133,0,.265,0,.4,0,.4.006.528.221.563.4a.468.468,0,0,1-.389.569,2.048,2.048,0,0,1-.359.024H6.4Zm11.419-.8H1.359a1.146,1.146,0,0,0-.226.021.283.283,0,0,0-.233.273.279.279,0,0,0,.237.28,1.919,1.919,0,0,0,.324.022H18.03a1.825,1.825,0,0,0,.324-.021.268.268,0,0,0,.228-.333c-.02-.1-.08-.235-.37-.24C18.08,10.292,17.948,10.292,17.816,10.292Zm-3.8-6.467-.122-.241L12.837,2.528,12.409,2.1l.465-.075c.253-.041.492-.08.732-.115a.264.264,0,0,1,.2.076c.136.126.268.25.393.384a.291.291,0,0,1,.069.234c-.044.235-.093.47-.146.719ZM12.826,2.234l.152.153.935.937.009-.044c.052-.248.1-.482.145-.714a.1.1,0,0,0-.019-.06c-.121-.129-.25-.251-.383-.375a.12.12,0,0,0-.037-.023c-.236.035-.472.073-.722.114Z" transform="translate(0.018 0.008)" fill="#c7112b"/><path d="M62.81,271.208c.2,0,.35.127.424.381.176.6.353,1.2.514,1.8a.56.56,0,0,0,.5.466.41.41,0,0,1,.385.5.443.443,0,0,1-.538.352,1.28,1.28,0,0,1-1.149-.947c-.2-.648-.379-1.3-.558-1.957a.435.435,0,0,1,.421-.6Z" transform="translate(-59.413 -258.91)" fill="#c7112b"/><path d="M62.8,271.108h.012a.537.537,0,0,1,.519.452l.057.194c.154.525.314,1.068.458,1.606a.462.462,0,0,0,.418.393.565.565,0,0,1,.388.216.52.52,0,0,1,.081.4.529.529,0,0,1-.553.44.8.8,0,0,1-.1-.006,1.384,1.384,0,0,1-1.233-1.016c-.184-.595-.352-1.2-.514-1.794l-.046-.166a.593.593,0,0,1,.082-.521A.52.52,0,0,1,62.8,271.108Zm1.379,3.5a.343.343,0,0,0,.31-.525.372.372,0,0,0-.256-.135.659.659,0,0,1-.581-.539c-.143-.536-.3-1.077-.457-1.6l-.057-.194c-.08-.273-.227-.307-.33-.309H62.8a.325.325,0,0,0-.267.122.391.391,0,0,0-.048.347l.046.166c.161.588.328,1.2.512,1.787a1.182,1.182,0,0,0,1.066.877A.591.591,0,0,0,64.178,274.612Z" transform="translate(-59.413 -258.91)" fill="#c7112b"/></g></g></svg>