<svg xmlns="http://www.w3.org/2000/svg" width="14.379" height="13.988" viewBox="0 0 14.379 13.988"><g transform="translate(24249.027 2823.214)"><path d="M8.352,13.871a1.885,1.885,0,0,1-1.33-.528L2.528,8.849a1.94,1.94,0,0,1,0-2.661L7.022,1.695a1.941,1.941,0,0,1,2.661,0l4.494,4.494a1.94,1.94,0,0,1,0,2.661L9.683,13.343A1.885,1.885,0,0,1,8.352,13.871Zm0-11.7a.881.881,0,0,0-.623.235L3.235,6.9a.944.944,0,0,0,0,1.247l4.494,4.494a.944.944,0,0,0,1.247,0L13.47,8.142a.944.944,0,0,0,0-1.247L8.976,2.4A.881.881,0,0,0,8.352,2.167Z" transform="translate(-24250.189 -2824.381)" fill="#c7112b"/><path d="M5.315,15.124a.5.5,0,0,1-.354-.146L1.313,11.33a.5.5,0,0,1,.707-.707l3.648,3.648a.5.5,0,0,1-.354.854Z" transform="translate(-24250.193 -2824.351)" fill="#c7112b"/><path d="M11.363,15.124a.5.5,0,0,1-.354-.854l3.648-3.648a.5.5,0,0,1,.707.707l-3.648,3.648A.5.5,0,0,1,11.363,15.124Z" transform="translate(-24250.16 -2824.351)" fill="#c7112b"/></g></svg>