<svg xmlns="http://www.w3.org/2000/svg" width="16.742" height="16.291" viewBox="0 0 16.742 16.291"><g transform="translate(0.65 0.65)"><path d="M9.255,15.827A2.249,2.249,0,0,1,7.668,15.2L2.481,10.009a2.312,2.312,0,0,1,0-3.174L7.668,1.647a2.313,2.313,0,0,1,3.175,0L16.03,6.834a2.312,2.312,0,0,1,0,3.174L10.843,15.2A2.249,2.249,0,0,1,9.255,15.827Zm0-13.51a.944.944,0,0,0-.668.25L3.4,7.754a1.017,1.017,0,0,0,0,1.336l5.187,5.187a1.018,1.018,0,0,0,1.336,0L15.111,9.09a1.017,1.017,0,0,0,0-1.336L9.923,2.567A.944.944,0,0,0,9.255,2.317Z" transform="translate(-1.533 -1.667)" fill="#c7112b"/><path d="M5.878,15.837a.648.648,0,0,1-.46-.19L1.207,11.436a.65.65,0,1,1,.919-.919l4.211,4.211a.65.65,0,0,1-.46,1.11Z" transform="translate(-1.666 -0.196)" fill="#c7112b"/><path d="M11.363,15.837a.65.65,0,0,1-.46-1.11l4.211-4.211a.65.65,0,1,1,.919.919l-4.211,4.211A.648.648,0,0,1,11.363,15.837Z" transform="translate(-0.132 -0.196)" fill="#c7112b"/></g></svg>