<svg xmlns="http://www.w3.org/2000/svg" width="44" height="44" viewBox="0 0 44 44"><g transform="translate(13081 15424)"><circle cx="22" cy="22" r="22" transform="translate(-13081 -15424)" fill="#f2f2f2"/><path d="M22,1a21.006,21.006,0,0,0-8.174,40.35A21.006,21.006,0,0,0,30.174,2.65,20.868,20.868,0,0,0,22,1m0-1A22,22,0,1,1,0,22,22,22,0,0,1,22,0Z" transform="translate(-13081 -15424)" fill="#fff"/><g transform="translate(-13097.165 -15417.504)"><g transform="translate(30.144)"><path d="M119.049,0a8.258,8.258,0,1,0,8.258,8.258A8.28,8.28,0,0,0,119.049,0Z" transform="translate(-110.791)" fill="#dedede"/></g><g transform="translate(24.165 17.107)"><g transform="translate(0)"><path d="M52.575,253.849a7.7,7.7,0,0,0-.829-1.515,10.265,10.265,0,0,0-7.1-4.472,1.52,1.52,0,0,0-1.046.252,8.8,8.8,0,0,1-10.386,0,1.353,1.353,0,0,0-1.046-.252,10.191,10.191,0,0,0-7.1,4.472,8.877,8.877,0,0,0-.829,1.515.767.767,0,0,0,.036.685,14.387,14.387,0,0,0,.974,1.443,13.7,13.7,0,0,0,1.659,1.875,21.607,21.607,0,0,0,1.659,1.443,16.445,16.445,0,0,0,19.618,0,15.852,15.852,0,0,0,1.659-1.443,16.65,16.65,0,0,0,1.659-1.875,12.645,12.645,0,0,0,.974-1.443A.615.615,0,0,0,52.575,253.849Z" transform="translate(-24.165 -247.841)" fill="#dedede"/></g></g></g></g></svg>