<svg xmlns="http://www.w3.org/2000/svg" width="19.783" height="21" viewBox="0 0 19.783 21"><g transform="translate(-0.008 0.01)"><g transform="translate(0.008 -0.01)"><path d="M17.076-.009a.731.731,0,0,1,.488.785q-.008,9.34,0,18.68v.3c.516,0,1.013,0,1.51,0a1.039,1.039,0,0,1,.283.031.6.6,0,0,1,.435.657.613.613,0,0,1-.558.538c-.054,0-.109,0-.164,0H.733c-.436,0-.709-.22-.725-.582a.609.609,0,0,1,.638-.647c.519,0,1.038,0,1.591,0v-.284q0-9.35,0-18.7A.731.731,0,0,1,2.722-.01H17.076Zm-.763,19.76V1.232H3.482V19.745H6.573V15.059c0-.489.227-.721.709-.721q2.614,0,5.228,0a.625.625,0,0,1,.713.717q0,2.225,0,4.449v.247h3.089Zm-8.5-4.175v4.17h4.163v-4.17Z" transform="translate(-0.008 0.01)" fill="#c7112b"/><path d="M93.615,53.8c-.485,0-.97,0-1.454,0s-.956,0-1.434,0a.629.629,0,0,1-.683-.673q0-1.455,0-2.909a.623.623,0,0,1,.668-.666q1.455-.006,2.909,0a.626.626,0,0,1,.673.683q0,1.444,0,2.888m-3.008-2.331v1.764h1.762V50.794Z" transform="translate(-85.108 -46.836)" fill="#c7112b"/><path d="M195.458,53.817c-.478,0-.956,0-1.434,0a.628.628,0,0,1-.681-.676q0-1.455,0-2.909a.623.623,0,0,1,.671-.664q1.455,0,2.909,0a.622.622,0,0,1,.67.665q.007,1.455,0,2.909a.628.628,0,0,1-.681.675c-.485,0-.97,0-1.454,0Zm.891-1.243v-1.76h-1.758v1.76Z" transform="translate(-182.748 -46.849)" fill="#c7112b"/><path d="M94.312,156.286c0,.471,0,.942,0,1.413a.628.628,0,0,1-.7.7q-1.433,0-2.867,0a.624.624,0,0,1-.687-.687q0-1.433,0-2.867a.626.626,0,0,1,.686-.688q1.444,0,2.888,0a.623.623,0,0,1,.676.677c0,.485,0,.969,0,1.454ZM91.3,155.4v1.757H93.07V155.4Z" transform="translate(-85.126 -145.707)" fill="#c7112b"/><path d="M197.624,156.269c0,.471,0,.942,0,1.413a.636.636,0,0,1-.719.717q-1.414,0-2.827,0a.631.631,0,0,1-.705-.71q0-1.414,0-2.827a.632.632,0,0,1,.709-.706q1.424,0,2.847,0a.629.629,0,0,1,.695.7c0,.471,0,.942,0,1.413Zm-1.246.888V155.4h-1.759v1.753Z" transform="translate(-182.776 -145.708)" fill="#c7112b"/></g></g></svg>