<svg xmlns="http://www.w3.org/2000/svg" width="15.691" height="12.273" viewBox="0 0 15.691 12.273"><g transform="translate(0.1 0.1)"><g transform="translate(0 0)"><path d="M15.5,11.857a.38.38,0,0,1-.393.213c-.287-.01-.575,0-.862,0s-.352-.086-.41-.349a11.392,11.392,0,0,0-.308-1.143,2.637,2.637,0,0,0-.286-.5.3.3,0,0,0-.29-.141q-3.464.007-6.928,0a1.619,1.619,0,0,1-.2-.006.283.283,0,0,1-.256-.268A.28.28,0,0,1,5.8,9.355a1.152,1.152,0,0,1,.226-.014h8.86V8.33H7.417c-.444,0-.888-.019-1.331,0-1.231.062-1.5-.266-1.434-1.4,0-.063,0-.126,0-.2H.624V9.341H3.081a1.119,1.119,0,0,1,.151.006.3.3,0,0,1,.274.3.289.289,0,0,1-.291.283c-.221.008-.444.011-.665,0a.3.3,0,0,0-.269.126,3.108,3.108,0,0,0-.542,1.276c-.033.145-.05.293-.075.439a.306.306,0,0,1-.348.294c-.308,0-.615,0-.923,0-.279,0-.382-.1-.382-.377V4.87c0-.812,0-1.625,0-2.436a.9.9,0,0,1,.24-.7A1.069,1.069,0,0,1,.409.23,1.083,1.083,0,0,1,1.8.267,1.047,1.047,0,0,1,1.908,1.72c.357.332.209.779.253,1.183a1.843,1.843,0,0,1,1.721.636c.3.351.617.68.929,1.017a1.432,1.432,0,0,1,.371.637c.029.124.087.148.207.148q3.615-.005,7.23,0a5.774,5.774,0,0,1,1.663.16,1.59,1.59,0,0,1,1,.646,3.947,3.947,0,0,1,.221.513v5.2ZM5.264,5.941c0,.536,0,1.064,0,1.592a.2.2,0,0,0,.209.2,1.655,1.655,0,0,0,.166,0h8.967c.2-.006.284-.087.286-.283s0-.366,0-.549a.74.74,0,0,0-.491-.73,3.128,3.128,0,0,0-1.237-.236q-3.909-.005-7.817,0c-.02,0-.04,0-.085.007Zm-3.716.18V2.437c0-.035,0-.069,0-.1C1.542,2.165,1.48,2.1,1.307,2.1c-.136,0-.272,0-.408,0-.234,0-.283.05-.283.279V6.121h.933ZM2.158,3.9a1.01,1.01,0,0,0,.3.78c.331.353.66.708.979,1.07a1.113,1.113,0,0,0,.941.378.252.252,0,0,0,.26-.238,1.089,1.089,0,0,0-.285-.945q-.506-.531-.99-1.081a1.161,1.161,0,0,0-.928-.382.256.256,0,0,0-.276.255C2.154,3.789,2.158,3.843,2.158,3.9Zm-1.113,7.57.522-1.521H.625v1.521h.42Zm13.841,0V9.948h-.941l.517,1.52h.424ZM1.547,1.051a.466.466,0,0,0-.932-.014A.467.467,0,0,0,1.08,1.5.474.474,0,0,0,1.547,1.051ZM2.97,6.124l-.8-.878v.878Z" transform="translate(-0.008 0.003)" fill="#c7112b"/><path d="M15.133,12.17H15.1c-.1,0-.209-.005-.342-.005l-.494,0h-.023c-.35,0-.446-.144-.507-.427a11.2,11.2,0,0,0-.306-1.133,1.524,1.524,0,0,0-.187-.343c-.03-.046-.061-.092-.089-.139s-.081-.093-.2-.093c-1.518,0-3.006,0-4.134,0H5.966a1.257,1.257,0,0,1-.153-.007.385.385,0,0,1-.344-.361.378.378,0,0,1,.308-.41,1.176,1.176,0,0,1,.234-.016h8.772V8.43H7.417c-.139,0-.279,0-.419,0s-.277,0-.416,0c-.189,0-.345,0-.491.011-.1,0-.186.007-.269.007a1.33,1.33,0,0,1-1.02-.3,1.566,1.566,0,0,1-.25-1.217c0-.029,0-.06,0-.092H.724V9.241h2.4a.917.917,0,0,1,.125.007.394.394,0,0,1,.36.4.389.389,0,0,1-.388.38c-.142,0-.261.007-.373.007s-.205,0-.3-.006H2.53a.194.194,0,0,0-.171.088,3.015,3.015,0,0,0-.524,1.237c-.021.09-.035.181-.049.278-.008.052-.016.1-.025.156a.4.4,0,0,1-.446.377c-.307,0-.613,0-.92,0-.337,0-.485-.148-.485-.477V4.87q0-.344,0-.688c0-.573,0-1.166,0-1.748a1.044,1.044,0,0,1,.218-.721A1.151,1.151,0,0,1,.347.152,1.194,1.194,0,0,1,1.082-.1a1.176,1.176,0,0,1,.78.3A1.138,1.138,0,0,1,2.038,1.71a1.156,1.156,0,0,1,.216.855c0,.079,0,.156,0,.23.066,0,.132-.007.195-.007a1.866,1.866,0,0,1,1.51.687c.215.255.448.5.674.744l.252.27a1.51,1.51,0,0,1,.4.682c.015.064.02.071.106.071q3.622-.005,7.233,0H12.7a5.56,5.56,0,0,1,1.608.164,1.685,1.685,0,0,1,1.054.69,2.237,2.237,0,0,1,.165.366c.02.053.041.107.063.159l.008.019V11.88l-.011.022A.469.469,0,0,1,15.133,12.17Zm-.371-.206c.135,0,.246,0,.349.005a.284.284,0,0,0,.29-.138V6.676c-.02-.049-.039-.1-.057-.147a2.055,2.055,0,0,0-.149-.334,1.511,1.511,0,0,0-.939-.6A5.4,5.4,0,0,0,12.7,5.438h-.084q-3.615,0-7.23,0a.268.268,0,0,1-.3-.225,1.321,1.321,0,0,0-.347-.592l-.251-.269c-.228-.242-.463-.493-.681-.752A1.741,1.741,0,0,0,2.172,3l-.1.01-.011-.1a2.731,2.731,0,0,1-.008-.353.9.9,0,0,0-.214-.767l-.066-.061.053-.072A.951.951,0,0,0,1.73.342.976.976,0,0,0,1.082.1.993.993,0,0,0,.471.309a.985.985,0,0,0-.136,1.37l.039.067L.318,1.8a.794.794,0,0,0-.21.632c0,.583,0,1.176,0,1.75q0,.344,0,.687v6.819c0,.22.058.277.282.277.313,0,.616,0,.922,0,.163,0,.222-.05.25-.211.009-.05.016-.1.024-.151.015-.1.03-.195.052-.292A3.242,3.242,0,0,1,2.2,10a.393.393,0,0,1,.352-.164c.092,0,.188.006.292.006s.226,0,.366-.007a.189.189,0,0,0,.195-.186.2.2,0,0,0-.187-.2.743.743,0,0,0-.1,0H.524V6.632H4.753v.1c0,.023,0,.045,0,.067,0,.047,0,.091,0,.137-.032.57.026.889.2,1.069a1.164,1.164,0,0,0,.875.237c.079,0,.166,0,.259-.007.15-.008.309-.011.5-.011.139,0,.279,0,.419,0s.277,0,.416,0h7.566v1.21H6.012a1.023,1.023,0,0,0-.194.012.18.18,0,0,0-.148.2.183.183,0,0,0,.168.175,1.052,1.052,0,0,0,.128.006H8.819c1.127,0,2.615,0,4.131,0a.4.4,0,0,1,.376.189c.027.045.056.089.085.133a1.693,1.693,0,0,1,.21.39,11.4,11.4,0,0,1,.311,1.153c.051.232.094.27.312.27h.023Zm.224-.4h-.6l-.585-1.72h1.18Zm-.452-.2h.252v-1.32h-.7Zm-13.417.2H.525V9.847H1.707Zm-.392-.2H.974l.453-1.321h-.7ZM14.579,7.836H5.605a1.387,1.387,0,0,1-.139-.005.3.3,0,0,1-.3-.3c-.005-.39,0-.787,0-1.172q0-.21,0-.422V5.849l.091-.008.04,0a.535.535,0,0,1,.054,0H7.144c1.974,0,4.015,0,6.023,0a3.2,3.2,0,0,1,1.276.244.837.837,0,0,1,.552.822c0,.166,0,.36,0,.551a.345.345,0,0,1-.383.382Zm-8.937-.2h8.964c.148,0,.187-.042.188-.184,0-.189,0-.382,0-.548a.644.644,0,0,0-.43-.639,3.009,3.009,0,0,0-1.2-.228c-2.008,0-4.049,0-6.023,0H5.364q0,.165,0,.33c0,.384,0,.78,0,1.168,0,.058.041.091.119.1.039,0,.08,0,.119,0ZM4.3,6.228a1.188,1.188,0,0,1-.941-.413c-.278-.315-.589-.655-.977-1.068a1.1,1.1,0,0,1-.327-.851c0-.015,0-.031,0-.046a1.078,1.078,0,0,1,0-.123.355.355,0,0,1,.374-.346h0a1.259,1.259,0,0,1,1,.416c.306.349.638.711.987,1.078A1.184,1.184,0,0,1,4.737,5.9a.349.349,0,0,1-.354.325ZM2.434,3.479v.1a.158.158,0,0,0-.175.164.917.917,0,0,0,0,.1c0,.018,0,.036,0,.053V3.9a.912.912,0,0,0,.273.706c.39.415.7.756.981,1.073a1.018,1.018,0,0,0,.861.344.153.153,0,0,0,.165-.151.983.983,0,0,0-.259-.864c-.351-.368-.685-.733-.993-1.084a1.057,1.057,0,0,0-.853-.348ZM3.2,6.224H2.065V4.989Zm-.932-.2h.477L2.265,5.5Zm-.717.2H.516V2.379C.516,2.094.609,2,.9,2H.961c.116,0,.232,0,.348,0a.3.3,0,0,1,.339.329c0,.025,0,.05,0,.074V6.121h-.1Zm-.833-.2h.732V2.4c0-.022,0-.044,0-.066,0-.115-.023-.133-.143-.135s-.228,0-.342,0H.9c-.179,0-.184.006-.184.179ZM1.08,1.6a.57.57,0,0,1-.406-.173.548.548,0,0,1-.159-.4A.565.565,0,0,1,1.081.492h.008a.568.568,0,0,1,.558.559A.572.572,0,0,1,1.08,1.6Zm0-.912a.363.363,0,0,0-.365.346.349.349,0,0,0,.1.253.368.368,0,0,0,.262.112.374.374,0,0,0,.368-.355A.365.365,0,0,0,1.086.692Z" transform="translate(-0.008 0.003)" fill="#c7112b"/><path d="M104.966,236.039a.278.278,0,0,1-.287-.278.284.284,0,0,1,.289-.293.287.287,0,0,1,.282.287A.284.284,0,0,1,104.966,236.039Z" transform="translate(-100.441 -226.107)" fill="#c7112b"/><path d="M104.966,236.139h0a.377.377,0,0,1-.386-.377.389.389,0,0,1,.112-.281.377.377,0,0,1,.27-.113h.009a.388.388,0,0,1,.38.388A.382.382,0,0,1,104.966,236.139Z" transform="translate(-100.441 -226.107)" fill="#c7112b"/></g></g></svg>