<svg xmlns="http://www.w3.org/2000/svg" width="95.725" height="69.329" viewBox="0 0 95.725 69.329"><g transform="translate(-510.471 -312.888)"><g transform="translate(510.871 313.288)"><path d="M89.511,54.185h-4.4V52.028h4.4a12.254,12.254,0,0,0,0-24.507h0a1.094,1.094,0,0,0-.518.086c-.173,0-.345.086-.518.086l-1.381.086.259-1.381a19.694,19.694,0,0,0,.345-3.883,20.2,20.2,0,0,0-37.882-9.837l-.518.949-.949-.518A15.7,15.7,0,0,0,25.309,27a2.936,2.936,0,0,0,.086.863l.086,1.294-1.64-.086a4.921,4.921,0,0,0-1.122-.086,11.563,11.563,0,0,0,0,23.126v2.157a13.764,13.764,0,0,1-.086-27.527h.518A17.862,17.862,0,0,1,41.187,8.968a18.159,18.159,0,0,1,7.335,1.64A22.361,22.361,0,0,1,89.943,22.43c0,.949-.086,1.985-.173,2.934a14.412,14.412,0,0,1-.259,28.822Z" transform="translate(-9 0.047)" fill="#c7112b"/><path d="M23.121,54.672h-.4A14.1,14.1,0,0,1,8.6,40.551a14.2,14.2,0,0,1,4.118-10.065,13.871,13.871,0,0,1,9.916-4.142h.125A18.26,18.26,0,0,1,41.027,8.567h.164A18.292,18.292,0,0,1,48.366,10.1a22.717,22.717,0,0,1,39.112,1.2A23.081,23.081,0,0,1,90.343,22.43c0,.828-.065,1.728-.137,2.549a14.89,14.89,0,0,1,9.969,4.529,14.853,14.853,0,0,1-.234,20.831,14.779,14.779,0,0,1-10.431,4.246h-4.8V51.628h4.8a11.854,11.854,0,0,0,0-23.707.76.76,0,0,0-.339.044l-.084.042h-.094a.855.855,0,0,0-.162.031,1.479,1.479,0,0,1-.341.055l-1.883.118.354-1.886a19.321,19.321,0,0,0,.338-3.809A19.969,19.969,0,0,0,67.5,2.637,19.728,19.728,0,0,0,50.167,12.87l-.709,1.3-1.3-.708A15.3,15.3,0,0,0,25.709,27a2.683,2.683,0,0,0,.066.736l.016.049.12,1.8-2.128-.112-.037-.009a4.638,4.638,0,0,0-1.025-.074,11.163,11.163,0,1,0,0,22.326h.4Zm-.486-27.527a13.365,13.365,0,0,0-.314,26.721V52.508a11.963,11.963,0,0,1,.4-23.92,5.411,5.411,0,0,1,1.179.089l1.153.061L25,27.94a3.448,3.448,0,0,1-.09-.937A16.1,16.1,0,0,1,48.536,12.756l0,0,.6.326.326-.6A20.614,20.614,0,0,1,88.1,22.516a20.1,20.1,0,0,1-.353,3.962l-.163.871.893-.055a.855.855,0,0,0,.162-.031,1.765,1.765,0,0,1,.26-.05,1.56,1.56,0,0,1,.614-.091,12.654,12.654,0,0,1,0,25.307h-4v1.357h4a14.009,14.009,0,0,0,14.011-13.756A13.8,13.8,0,0,0,99.6,30.064a14.033,14.033,0,0,0-9.839-4.3l-.428-.009.039-.427c.083-.91.171-1.959.171-2.9a21.966,21.966,0,0,0-40.68-11.613l-.183.3-.32-.142a17.629,17.629,0,0,0-7.172-1.605h-.16a17.556,17.556,0,0,0-17.475,17.38l0,.4Z" transform="translate(-9 0.047)" fill="#c7112b"/></g><g transform="translate(523.408 361.073)"><path d="M18.536,8.064H6.8V-7.9H18.45v2.157H8.957V5.907H18.45V8.064Z" transform="translate(-6.8 7.9)" fill="#c7112b"/><path d="M18.85,8.464H6.4V-8.3H18.85v2.957H9.357V5.507H18.85ZM7.2,7.664H18.05V6.307H8.557V-6.143H18.05V-7.5H7.2Z" transform="translate(-6.8 7.9)" fill="#c7112b"/></g><g transform="translate(557.239 347.344)"><path d="M32.006,22.531H23.55V20.374h6.213V-3.443H3.357V.009H1.2V-5.6H32.006Z" transform="translate(-1.2 5.6)" fill="#c7112b"/><path d="M32.406,22.931H23.15V19.974h6.213V-3.043H3.757V.409H.8V-6H32.406Zm-8.457-.8h7.657V-5.2H1.6V-.391H2.957V-3.843H30.163V20.774H23.95Z" transform="translate(-1.2 5.6)" fill="#c7112b"/></g><g transform="translate(546.89 335.666)"><path d="M5.144,13.559H2.9V-3.7H38.194V4.929H36.036V-1.456H5.144Z" transform="translate(-2.9 3.7)" fill="#c7112b"/><path d="M5.544,13.959H2.5V-4.1H38.594V5.329H35.636V-1.056H5.544Zm-2.244-.8H4.744V-1.856H36.436V4.529h1.357V-3.3H3.3Z" transform="translate(-2.9 3.7)" fill="#c7112b"/></g><g transform="translate(538.454 356.361)"><path d="M42.1,18.356H4.3V-7.1H42.1ZM6.544,16.2h33.4V-4.943H6.544Z" transform="translate(-4.3 7.1)" fill="#c7112b"/><path d="M42.5,18.756H3.9V-7.5H42.5Zm-37.8-.8h37V-6.7H4.7ZM40.339,16.6H6.144V-5.343h34.2Zm-33.4-.8h32.6V-4.543H6.944Z" transform="translate(-4.3 7.1)" fill="#c7112b"/></g><g transform="translate(538.426 363.648)"><g transform="translate(0 0)"><path d="M5.853,6.788,4.3,5.234,18.366-8.4,29.325,1.437l-1.467,1.64L18.366-5.38Z" transform="translate(-4.3 8.4)" fill="#c7112b"/><path d="M5.849,7.349,3.73,5.23,18.355-8.947,29.889,1.406l-2,2.235L18.378-4.833ZM4.87,5.239l.987.987,12.5-12.152,9.472,8.439.935-1.044L18.376-7.853Z" transform="translate(-4.3 8.4)" fill="#c7112b"/></g><g transform="translate(19.998 2.043)"><path d="M16.792,1.483,6.954-5.939,2.381-2.487,1-4.213,6.954-8.7,18.172-.243Z" transform="translate(-1 8.7)" fill="#c7112b"/><path d="M16.861,2.036,6.954-5.438l-4.643,3.5L.43-4.284,6.954-9.2,18.742-.315ZM6.954-6.44,16.722.929l.881-1.1L6.954-8.2,1.57-4.141l.881,1.1Z" transform="translate(-1 8.7)" fill="#c7112b"/></g></g><g transform="translate(595.759 347.45)"><path d="M-3.647,5.963-5.2,4.41a5.989,5.989,0,0,0,0-8.457h0L-3.647-5.6a8.176,8.176,0,0,1,0,11.563Z" transform="translate(5.2 5.6)" fill="#c7112b"/><path d="M-4.047,6.947V6.129L-5.766,4.41l.283-.283A5.541,5.541,0,0,0-3.853.182a5.541,5.541,0,0,0-1.63-3.945l-.283-.283,2.115-2.115.283.275a8.3,8.3,0,0,1,2.516,6A8.737,8.737,0,0,1-3.247,6.124v.805l-.4-.4Zm-.6-2.546.986.986A7.933,7.933,0,0,0-1.652.117a7.512,7.512,0,0,0-2-5.148l-.993.993A6.334,6.334,0,0,1-3.053.182,6.334,6.334,0,0,1-4.643,4.4Z" transform="translate(5.2 5.6)" fill="#c7112b"/></g></g></svg>