<svg xmlns="http://www.w3.org/2000/svg" width="16.376" height="16.379" viewBox="0 0 16.376 16.379"><g transform="translate(0 0)"><g transform="translate(0 0)"><path d="M12.153,16.425c-.233-.166-.473-.321-.7-.5q-2.57-2.046-5.136-4.1a.4.4,0,0,0-.23-.077c-.826-.005-1.652,0-2.478,0a1.186,1.186,0,0,1-1.277-1.277V6.027a1.2,1.2,0,0,1,1.3-1.3h.2c-.061-.065-.1-.105-.135-.143Q1.964,2.84.222,1.1a.6.6,0,0,1-.2-.618A.578.578,0,0,1,.967.2c.108.095.206.2.308.3q7.4,7.4,14.8,14.8a3.165,3.165,0,0,1,.3.42v.256a.77.77,0,0,1-.448.448H15.64a5.462,5.462,0,0,1-.453-.365c-.731-.722-1.455-1.452-2.182-2.178-.038-.038-.079-.071-.143-.129,0,.669-.012,1.3,0,1.924a.675.675,0,0,1-.457.747h-.256Z" transform="translate(0 -0.046)" fill="#fff"/><path d="M138.53,4.225l1.492-1.191L143.636.155a.564.564,0,0,1,.639-.094.568.568,0,0,1,.333.554v9.659c0,.021,0,.042,0,.027Z" transform="translate(-131.747 0)" fill="#fff"/></g></g></svg>