<svg xmlns="http://www.w3.org/2000/svg" xmlns:xlink="http://www.w3.org/1999/xlink" width="460.617" height="664.938" viewBox="0 0 460.617 664.938"><defs><linearGradient id="a" x1="0.5" x2="0.5" y2="1.001" gradientUnits="objectBoundingBox"><stop offset="0" stop-color="#cf8b4b"/><stop offset="1" stop-color="#703952"/></linearGradient><linearGradient id="b" x1="-0.016" y1="0.048" x2="0.973" y2="0.8" gradientUnits="objectBoundingBox"><stop offset="0" stop-color="#00659c"/><stop offset="0.567" stop-color="#f1fafe"/><stop offset="1" stop-color="#5f84b2"/></linearGradient></defs><g transform="translate(0.617)"><rect width="460" height="658" fill="#c7112b"/><path d="M43.116,738.176a5.3,5.3,0,0,1,.861-4.181l.133,1.659Z" transform="translate(-9.876 -280.424)" fill="#dd9588"/><path d="M394.194,928.623c.354-.686.707-1.372,1.061-2.127,2.475-7.892,1.591-12.764.472-15.715-4.421-11.529-16.5-17.706-43.08-22.715-1.945-.343-14.085-4.8-18.859-18.323-3.124-8.784-1.356-17.568-.118-22.852,4.243-18.666,13.731-20.244,18.8-35.616,4.184-12.7,4.007-30.744-4.184-44.194-10.254-16.882-29.7-21-44.023-17.636-14.026,3.294-23.691,14.342-28.523,21.068A101.468,101.468,0,0,0,260.063,743c-19.743-24.5-49.976-36.1-77.439-31.7-30.7,4.941-49.739,28.548-59.287,40.42-53.57,66.634-40.015,168.815-37.128,188.167H475.051C454.66,936.515,422.659,932.741,394.194,928.623Z" transform="translate(-19.103 -274.939)" fill="#e2b674"/><path d="M186.125,921.147c2.716,5.64,7.486,8.626,9.541,9.952a31.806,31.806,0,0,0,12.919,4.446,27.668,27.668,0,0,0,3.512.2c35.447,0,52.673.531,65.461.531,29.814,0,77.253-.133,139.8-.133,8.614-4.645,45.12-26.74,59.365-74.778.994-3.252,19.347-69.6-13.848-108.154-2.054-2.389-22.791-25.878-44.59-20.37-22.991,5.772-26.1,38.749-54.131,45.385-11.926,2.853-21.931-.6-25.309-1.791-27.628-9.82-27.894-39.347-52.209-47.442-12.589-4.18-29.086-.663-38.495,11.412-13.185,16.853-10.866,45.716.8,63.433,7.023,10.616,14.378,13.469,18.486,27,1.458,4.777,4.372,15-.133,25.944-6.361,15.327-22.394,20.37-24.912,20.768C212.693,882.331,189.5,889.5,185.594,903.3,182.48,913.649,186.125,921.147,186.125,921.147Z" transform="translate(-42.834 -278.871)" fill="#ffd494"/><path d="M448.715,926.072c7.355-1.061,9.607-4.909,17.69-4.645,6.559.2,7.752,2.853,15.57,4.645,4.24,1,17.227,3.981,24.382-1.791,8.414-6.9,8.613-21.232,2.451-31.517-7.487-12.341-18.618-18.114-22.395-29.792-1.59-4.909-.6-6.768-.927-13.934-1.126-25.081-12.986-52.617-22-52.219-3.313.133-5.566,3.981-8.68,9.356-4.306,7.3-4.306,12.541-6.891,26.873-2.12,11.479-3.114,17.251-5.5,23.355-3.445,8.957-6.029,10.418-10.932,19.508-7.355,13.469-15.57,28.531-9.939,39.014C426.056,923.285,439.175,927.4,448.715,926.072Z" transform="translate(-97.714 -295.01)" fill="#f89c53"/><path d="M486.25,960.649s-11.263-25.147-9.077-49.366c2.186-24.284,4.77-19.375,1.325-40.873s-1.59-37.555-1.59-37.555-7.62,29.393-2.783,46.38-7.354,23.82-6.493,50.228-.066,31.186-.066,31.186Z" transform="translate(-108.88 -303.377)" fill="#465477"/><path d="M217.484,812.479s1.656,24.218-4.969,66.418l-11.661,66.75-7.619-.332s-.729-52.219,4.041-68.807c-.464-11.744-4.24-21.432-6.294-31.849a19.464,19.464,0,0,1-4.306-8.361c-1.524-5.242-.994-15.526,1.988-19.839C193.5,809.227,197.542,808.9,217.484,812.479Z" transform="translate(-43.187 -298.129)" fill="#453c73"/><path d="M187.093,823.264s4.042,6.436,8.282,7.431c4.506,1.128,9.673,49.83,9.673,49.83l3.445,20.37s-3.047-20.436-7.288-29.792c-1.656-3.715-6.1-14.8-9.739-22.626-1.59-2.123-2.982-3.252-4.042-6.768C185.3,834.543,186.5,828.838,187.093,823.264Z" transform="translate(-43.273 -301.15)" fill="#403a65" opacity="0.4"/><path d="M397.869,918.921H266.418a10.809,10.809,0,0,1-10.8-10.815V663.665a10.809,10.809,0,0,1,10.8-10.815H397.869a10.81,10.81,0,0,1,10.8,10.815v244.44A10.9,10.9,0,0,1,397.869,918.921Z" transform="translate(-59.457 -261.582)" fill="#4b4c61"/><path d="M397.26,675.837H276.874V800.181H397.26Z" transform="translate(-64.413 -266.92)" fill="#fff"/><path d="M344.3,801.729a36.892,36.892,0,1,0-36.838-36.891A36.865,36.865,0,0,0,344.3,801.729Z" transform="translate(-71.546 -279.02)" fill="#8fdd66"/><path d="M352.157,792.194l-20.027-13a6.423,6.423,0,0,1,7-10.775l8.994,5.84,12.451-20.211a6.423,6.423,0,1,1,10.938,6.738Z" transform="translate(-78.114 -285.861)" fill="#fff"/><path d="M255.446,866.835V663.665a10.81,10.81,0,0,1,10.8-10.815h113.3Z" transform="translate(-59.416 -261.582)" fill="#fff" opacity="0.3"/><path d="M397.128,854.114H276.874v18.313H397.128Z" transform="translate(-64.413 -308.313)" fill="#fff" opacity="0.55"/><path d="M224.781,818.9s-2.85-3.981-15.967-5.175a63.427,63.427,0,0,1-8.68-1.526,15.755,15.755,0,0,0-4.439,3.053c-1.193,1.194-4.042,3.914-4.77,10.218a28.159,28.159,0,0,0,1.258,12.673c.994,3.451,3.578,5.839,5.632,8.427,6.294,17.583,7.354,26.408,8.282,29.726,1.458,19.109,12.787,70.333,12.787,70.333H226.5s-2.054-65.555-2.054-70.266c0-10.351-1.458-28.8-.994-41.8A126.067,126.067,0,0,0,224.781,818.9Z" transform="translate(-44.321 -298.582)" fill="#544a89"/><path d="M351.506,753.89H273.192a8.433,8.433,0,0,1-8.414-8.427V703.794a8.433,8.433,0,0,1,8.414-8.427H351.44a8.433,8.433,0,0,1,8.415,8.427v41.669A8.335,8.335,0,0,1,351.506,753.89Z" transform="translate(-61.593 -271.455)" fill="#02a4d3"/><path d="M326.509,729.329h-53v9.952h53Z" transform="translate(-63.627 -279.34)" fill="#ece9e7"/><path d="M359.88,711.354H264.6v9.953H359.88Z" transform="translate(-61.552 -275.166)" fill="#ece9e7"/><path d="M319.212,637.932a3.06,3.06,0,0,1-3.059-3.046,29.827,29.827,0,1,1,59.654-.16,3.06,3.06,0,0,1-6.119.028,23.708,23.708,0,1,0-47.415.105,3.06,3.06,0,0,1-3.046,3.073Z" transform="translate(-74.286 -251.168)" fill="#f26f6f"/><path d="M334.159,642.021a3.06,3.06,0,0,1-3.06-3.06,18.928,18.928,0,1,1,37.856-.067,3.06,3.06,0,0,1-6.12,0,12.809,12.809,0,1,0-25.617.067A3.06,3.06,0,0,1,334.159,642.021Z" transform="translate(-77.771 -254.66)" fill="#f28282"/><path d="M346.861,642.87a5.566,5.566,0,1,1,11.131,0Z" transform="translate(-80.733 -257.971)" fill="#ff9d9d"/><path d="M258.039,711.83c-.8-.73-2.584,1.592-3.578,1.659h-.53c-.133,0-.53-.4-.928-.4a3.5,3.5,0,0,0-.728.2c-.331,0-.729-.4-1.126-.4-.265,0-.729.4-.994.4-.331.066-.928-.266-1.392-.133-.663.133-.8.4-1.391.929-2.319,1.924-2.253,4.91-3.181,6.038-2.186,2.919-9.673,6.834-17.16,12.009-3.512,2.389-14.642,8.692-14.642,8.692l-4.638,2.786s-10.336-20.038-12.787-4.18c0,0,.663,10.55,10.6,20.436,4.373,2.19,13.185-5.175,20.009-11.943l.066.067.994-1.062c4.7-4.777,8.216-8.957,8.216-8.957l-.067-.066c.53-.6,7.752-9.091,9.673-11.147a11.735,11.735,0,0,1,4.77-3.119,28.865,28.865,0,0,0,4.306-2.19,7.085,7.085,0,0,0,2.386-2.786c.53-.8-.53-.8-1.458-.464-.728.266-2.584,1.261-2.717,1.194a6.4,6.4,0,0,1,.928-1,21.922,21.922,0,0,0,1.789-1.924c.861-.929,1.259-1.592,1.922-2.19C256.913,713.953,258.7,712.427,258.039,711.83Z" transform="translate(-45.313 -275.244)" fill="#fbad83"/><path d="M229.178,762.444c.53,3.848.4,6.1-2.783,9.688-1.789,1.99-1.06,6.436-1.458,9.621-.6,5.242-.994,8.626-.663,13.337.067.6.133,8.692-.53,10.483-1.192,3.318-3.975,3.053-8.282,3.252-1.922.066-4.042.133-6.493.066-17.292-.265-22.13-4.246-22.13-4.246a28.692,28.692,0,0,1,3.048-8.162c2.716-4.909,4.7-10.218,4.836-13.8.928-21.83,2.518-34.3,6.228-39.082a13.537,13.537,0,0,1,8.68-5.838s10-1.261,17.028,4.379c4.572,3.649,5.9,5.441,5.9,5.441l-6.228,11.347,3.313.663A3.724,3.724,0,0,0,229.178,762.444Z" transform="translate(-43.419 -281.27)" fill="#f071a9"/><path d="M244.586,750.588l17.69,16.123,23.72-.4a20.106,20.106,0,0,1,4.306-2.057,7.235,7.235,0,0,1,4.24.531c.066,1.659-2.717,1.46-2.717,1.46l2.452.2,5.764.266-2.915,1.857s-3.644,2.456-5.367,2.588a35.881,35.881,0,0,1-5.566-.73L262.541,775.8a3.718,3.718,0,0,1-2.783-.464l-21.334-13.4Z" transform="translate(-55.447 -284.275)" fill="#fbad83"/><path d="M235.5,779.385c-1.789,1.925-1.656,6.5-1.856,9.622-.265,5.175-.663,10.351-.663,10.351-.132,4.512-.066,10.55-.663,15.46-3.577.332-8.149.531-8.149.531v.067c0-1.128,2.385-8.958,3.18-23.688a60.86,60.86,0,0,1,7.752-26.275l3.313,1.924s-1.126.73-.53,2.787C238.876,773.546,238.678,775.868,235.5,779.385Z" transform="translate(-52.123 -287.727)" fill="#d36396"/><path d="M224.468,949.824a.267.267,0,0,1-.266-.259L222.413,887.8l-4.636-38.6-1.9-18.065a97.888,97.888,0,0,1-13.486-.143,56.174,56.174,0,0,1-9-1.455,20.7,20.7,0,0,1-6.45-2.513.267.267,0,0,1,.311-.433h0a20.8,20.8,0,0,0,6.322,2.443c4.118,1.048,11.369,2.168,22.527,1.555l.253-.014,1.948,18.565,4.639,38.637,1.789,61.774a.267.267,0,0,1-.259.274Z" transform="translate(-43.479 -301.973)" fill="#9764a7"/><path d="M191.767,747.644s.6,17.451,13.847,17.915c22.659.8,19.479-24.882,27.761-17.583a41.644,41.644,0,0,0-7.95-6.635s-2.584,7.432-8.415,10.218C212.836,753.55,197.73,755.142,191.767,747.644Z" transform="translate(-44.567 -282.129)" fill="#d36396"/><path d="M238.2,760.333a.267.267,0,0,1-.236-.39l5.212-9.982a26.379,26.379,0,0,0-5.833-4.325.267.267,0,1,1,.258-.467,25.676,25.676,0,0,1,6.1,4.565l.126.138-5.387,10.318A.267.267,0,0,1,238.2,760.333Z" transform="translate(-55.226 -283.072)" fill="#f8bbd6"/><path d="M194.584,834.023l10.237.919.558,8.451-4.333,1.708-3.387-1.7Zm9.735,1.409-8.976-.806,2.754,8.4,2.975,1.49,3.749-1.478Z" transform="translate(-45.313 -303.719)" fill="#9764a7"/><path d="M186.216,833.07l1.35.169,1.574-.078.212,7.416-2,.919L186.5,839.4Zm1.33.7-.769-.1.249,5.61.607,1.491,1.177-.54-.187-6.518Z" transform="translate(-43.338 -303.498)" fill="#9764a7"/><path d="M208.546,711.3c2.252,11.678,11.33,10.285,18.75,9.621,5.83-1.128,5.367-11.412,5.963-19.441-.133-1.924-.464-4.445-.728-6.237-1.392-8.227-13.914-6.37-21-2.985C205.763,695.1,206.823,702.471,208.546,711.3Z" transform="translate(-48.162 -270.064)" fill="#fcc197"/><path d="M240.962,715.405c-.5,0-.629-.546-.678-.752a8.389,8.389,0,0,1-.159-1.049c-.089-.881-.139-2.05-.139-3.289s.049-2.407.139-3.289a8.389,8.389,0,0,1,.159-1.049c.049-.206.18-.752.678-.752s.629.546.678.752a8.389,8.389,0,0,1,.159,1.049c.089.882.139,2.05.139,3.289s-.049,2.407-.139,3.289a8.389,8.389,0,0,1-.159,1.049C241.59,714.859,241.46,715.405,240.962,715.405Z" transform="translate(-55.931 -273.861)" fill="#fff"/><path d="M237.386,713.241h-8.812a.763.763,0,1,1,0-1.525h8.812a.763.763,0,1,1,0,1.525Z" transform="translate(-53.15 -275.428)" fill="#fff"/><path d="M195.257,751.638c10.336,5.242,23.918-1.593,27.5-10.218,3.644-8.758.6-19.308-2.253-24.484-1.258-2.256-3.908-8.758-.53-11.413,2.319-1.857,7.355-3.716,7.818-7.232.53-3.715-.331-5.175-1.856-6.967-4.7-5.507-16.829-3.185-22.659,3.384-4.638,5.242-9.474,13.867-12.389,20.768-4.77,11.213-4.174,19.906-3.777,23.422C187.77,744.007,189.029,748.519,195.257,751.638Z" transform="translate(-43.42 -269.799)" fill="url(#a)"/><path d="M187.567,737.02c.464,0-2.518,13.2,4.836,20.7,5.1,5.242,13.185,5.64,19.413,5.175a20.57,20.57,0,0,1-10.733,1.792c-.994-.133-5.7-.6-9.275-3.517C182.928,754.072,187.3,738.148,187.567,737.02Z" transform="translate(-43.283 -281.125)" fill="#633b2c"/><path d="M105.356,862.151H82.034v23.356h23.322Z" transform="translate(-18.979 -310.18)" fill="#819ed2"/><path d="M133.362,878.168a3.485,3.485,0,0,0-2.849-1.46H37.291L34.773,865.76A4.831,4.831,0,0,0,30,861.978H9.729a1.659,1.659,0,0,0,0,3.318H30a1.56,1.56,0,0,1,1.524,1.261l2.783,12.209v.066l6.957,30.588,3.578,15.726h.066l7.619,29.062a4.753,4.753,0,0,0,4.572,3.517h61.617a1.659,1.659,0,0,0,0-3.318H57.1a1.431,1.431,0,0,1-1.391-1.061l-7.354-28.266h70.032a3.679,3.679,0,0,0,3.512-2.654l12.058-41.071A3.448,3.448,0,0,0,133.362,878.168Zm-10.469,29.195h-14.51l1.061-12.209h17.028Zm-17.823,0H88.706V895.154h17.425ZM85.459,895.154v12.209H68.5l-1.06-12.209Zm-18.353-3.317-1.06-11.877H85.459v11.877Zm-1.921,15.526H44.314l-2.783-12.209H64.125ZM45.043,910.68H65.516l.994,11.08H47.627Zm23.719,0h16.7v11.08h-15.7Zm19.943,0h16.1l-.994,11.08H88.706Zm0-18.844V879.959h18.816l-1.06,11.877ZM62.733,880.025l1.06,11.877H40.736L38.02,880.025Zm56.052,41.47a.449.449,0,0,1-.4.265h-11.33l.994-11.08H121.9Zm11.992-41.072L127.4,891.9h-17.69l1.06-11.877h19.744a.345.345,0,0,1,.265.133A.323.323,0,0,1,130.778,880.424Z" transform="translate(-1.733 -310.139)" fill="url(#b)"/><path d="M119.551,960.259H57.933a6.738,6.738,0,0,1-6.593-5.176l-7.93-30.24L30.351,867.764h-19a3.712,3.712,0,0,1,0-7.425H31.365a6.156,6.156,0,0,1,6,4.787L50.62,923.074l7.923,30.209,61.008-.448a3.712,3.712,0,0,1,0,7.425Z" transform="translate(-2.498 -310.621)" fill="#737e9a"/><path d="M18.214,866.327H2.379a3.384,3.384,0,0,1,0-6.768H18.214Z" transform="translate(0.383 -309.578)" fill="#86acd5"/><path d="M544.114,932.738a31.318,31.318,0,1,0-31.272-31.318A31.3,31.3,0,0,0,544.114,932.738Z" transform="translate(-119.437 -312.025)" fill="#f26f6f"/><path d="M141.05,879.78H112.362v23.356H141.05Z" transform="translate(-26.051 -314.271)" fill="#a0c8ea"/><path d="M552.629,888.249l-5.83,85.262h10.468Z" transform="translate(-127.356 -316.238)" fill="#465477"/><path d="M397.128,885.483H276.874V903.8H397.128Z" transform="translate(-64.413 -315.596)" fill="#fff" opacity="0.55"/><path d="M84.739,890.376l-.331-3.715H102.23v3.715l1.524.067v-7.034h-21.2l.861,6.967Z" transform="translate(-19.1 -315.115)" fill="#7894c5"/><path d="M129.479,883.669l-1.855,18.446h-16.3v2.256h23.123v-2.92h6.36v-2.985H131.6l1.325-14.8Z" transform="translate(-25.81 -315.176)" fill="#bad7f0"/><path d="M101.9,892.483H78.578v23.356H101.9Z" transform="translate(-18.173 -317.223)" fill="#bad7f0"/><path d="M104.495,892.483,88.328,913.649l-3.71-21.166-2.584.067,1.656,21.9H103.7Z" transform="translate(-18.979 -317.223)" fill="#a0c8ea"/><path d="M472.653,908.29l-18.22-10.882,18.22,3.451v7.431Z" transform="translate(-105.817 -318.365)" fill="#465477"/><path d="M548.064,907.6l-18.287-10.881,18.287,6.966V907.6Z" transform="translate(-123.386 -318.205)" fill="#465477"/><path d="M480.956,923.1l24.25-6.768-25.111,14.531Z" transform="translate(-111.801 -322.76)" fill="#465477"/><path d="M554.42,920.855l24.382-6.768-25.177,14.531Z" transform="translate(-128.947 -322.238)" fill="#465477"/><path d="M397.128,916.939H276.874v18.313H397.128Z" transform="translate(-64.413 -322.9)" fill="#fff" opacity="0.55"/><path d="M141.457,910.2H107v23.356h34.453Z" transform="translate(-24.802 -321.334)" fill="#6e82a8"/><path d="M116.163,910.2v13.536h11.992l-.994,10.418h2.849l1.391-13.138H117.687V910.2Z" transform="translate(-26.938 -321.334)" fill="#65779a"/><path d="M98.179,922.988H69.16v12.938h29.02Z" transform="translate(-15.977 -324.305)" fill="#7287af"/><path d="M69.16,936.488c2.584,0,29.02-11.08,29.02-11.08v11.08Z" transform="translate(-15.977 -324.867)" fill="#697ca0"/><path d="M421.749,952.456h-39.29v17.052h39.29Z" transform="translate(-89.034 -331.146)" fill="#3abd9d"/><path d="M368.7,952.456h-39.29v17.052H368.7Z" transform="translate(-76.663 -331.146)" fill="#f6ca65"/><path d="M315.472,952.456h-39.29v17.052h39.29Z" transform="translate(-64.252 -331.146)" fill="#f26f6f"/><path d="M203.343,983.552l-.663,3.782,10.667,3.517.663.332a.791.791,0,0,1-.4,1.46l-10.071.664c-1.59.132-6.559.265-7.752-.531-1.325-.862-1.06-.729-1.259-1.924l.464-2.521.6-5.109Z" transform="translate(-45.212 -338.289)" fill="#fab074"/><path d="M234.526,984.137l.794,3.915,10.6,3.451.663.332a.791.791,0,0,1-.4,1.46l-10.071.663c-1.59.133-6.559.266-7.752-.53-1.325-.863-1.06-.73-1.259-1.924l.464-2.521-.265-5.242Z" transform="translate(-52.808 -338.41)" fill="#fab074"/><path d="M195.062,988.405s-1.856,6.37,1.391,7.63c2.849,1.062,10.469.73,16.5.531,1.921-.067,5.366-.4,4.969-1.991-.464-1.791-9.276-4.047-9.276-4.047.4.132,1.789.6,2.253.729,1.126.4-.2.929-1.722,1C205.266,992.453,194.267,992.718,195.062,988.405Z" transform="translate(-45.213 -339.494)" fill="#544a89"/><path d="M227.485,988.924s-1.723,6.5,1.524,7.763c2.849,1.063,10.469.729,16.5.531,1.921-.066,5.366-.4,4.969-1.991-.464-1.791-9.276-4.047-9.276-4.047.464.133,1.789.6,2.253.73,1.126.4-.2.928-1.722,1C237.821,993.1,227.684,993.171,227.485,988.924Z" transform="translate(-52.79 -339.613)" fill="#544a89"/><path d="M80.157,996.244a5.043,5.043,0,1,0-5.035-5.043A5.039,5.039,0,0,0,80.157,996.244Z" transform="translate(-17.367 -338.973)" fill="#737e9a"/><path d="M137.529,996.244a5.043,5.043,0,1,0-5.035-5.043A5.039,5.039,0,0,0,137.529,996.244Z" transform="translate(-30.746 -338.973)" fill="#737e9a"/><path d="M80.741,994.9a3.119,3.119,0,1,0-3.114-3.119A3.117,3.117,0,0,0,80.741,994.9Z" transform="translate(-17.952 -339.555)" fill="#9abde2"/><path d="M138.113,994.9A3.119,3.119,0,1,0,135,991.783,3.117,3.117,0,0,0,138.113,994.9Z" transform="translate(-31.33 -339.555)" fill="#9abde2"/><g transform="translate(35 38)"><path d="M78.8.144V1.03c6.616,1.423,10.441,5.248,10.987,11.185h.966C90.72,7.709,90.7,3.386,90.44.144,87.022-.043,83.113-.031,78.8.144Z" transform="translate(-73.429 -0.008)" fill="#fff"/><path d="M78.8,516.568v-.608c6.616-1.426,11.7-6.511,12.249-12.45l1.1.084L91.354,516.6Z" transform="translate(-73.429 -469.193)" fill="#fff"/><path d="M269,3.044c5.97.7,3.34,2.9,22.121,48.348l8.77-19.131-1.022-.3c-4.829,7-5.232,6.869-8.062.014L281.191,7.713c-1.707-3.321-.136-4.771,4.145-4.669V2H269Z" transform="translate(-250.666 -1.864)" fill="#fff"/><path d="M263.793,504.74c-.145,4.107-.4,8.416-.793,13.008" transform="translate(-245.075 -470.339)" fill="#fff"/><path d="M91.354,695.133q-6.188.164-12.554-.033" transform="translate(-73.429 -647.725)" fill="#fff"/><path d="M0,226.622l.045.954c3.638,1.227,6.329,3.509,6.747,8.331H7.986L7.8,218.34l-1.022.007C6.629,222.4,4.336,225.368,0,226.622Z" transform="translate(0 -203.459)" fill="#fff"/><path d="M710,2a7.344,7.344,0,0,1,0,.966c6.884-.23,6.884,6.478,4.591,13.923h.926c3.016-6.747,6-13.65,10.594-13.951V2.078Z" transform="translate(-661.609 -1.864)" fill="#fff"/><path d="M997.24,574.87h1.488v9.123h5.641v1.3H997.24Z" transform="translate(-929.272 -535.689)" fill="#fff"/><path d="M1134.5,583.993v1.3h-7.56V574.87h7.352v1.295h-5.861v3.2h5.224v1.265h-5.224V584Z" transform="translate(-1050.133 -535.689)" fill="#fff"/><path d="M1254.762,576.165h-3.572V574.87h8.617v1.295h-3.572v9.123h-1.473Z" transform="translate(-1165.914 -535.689)" fill="#fff"/><path d="M1396.864,565.4a2.9,2.9,0,0,1-.238,1.056l-.714,2.084h-.935l.551-2.217a.947.947,0,0,1-.625-.923.974.974,0,0,1,1-1.012A.956.956,0,0,1,1396.864,565.4Z" transform="translate(-1299.831 -525.924)" fill="#fff"/><path d="M1445.09,582.514l.551-1.159a5.358,5.358,0,0,0,3.438,1.206c1.8,0,2.575-.7,2.575-1.607,0-2.545-6.31-.938-6.31-4.807,0-1.607,1.25-2.976,3.989-2.976a6.13,6.13,0,0,1,3.349.922l-.491,1.191a5.385,5.385,0,0,0-2.858-.848c-1.772,0-2.53.744-2.53,1.651,0,2.545,6.31.954,6.31,4.778,0,1.592-1.279,2.961-4.033,2.961A6.2,6.2,0,0,1,1445.09,582.514Z" transform="translate(-1346.599 -534.105)" fill="#fff"/><path d="M1649.063,578.36h1.431v4.061a6.159,6.159,0,0,1-3.944,1.324,5.333,5.333,0,1,1,.03-10.655,5.221,5.221,0,0,1,4,1.607l-.928.926a4.129,4.129,0,0,0-3.021-1.206,4.006,4.006,0,1,0-.014,8.007,4.408,4.408,0,0,0,2.441-.67Z" transform="translate(-1529.156 -534.031)" fill="#fff"/><path d="M1828.964,585.288l-2.249-3.2c-.209.015-.432.029-.655.029h-2.575v3.17H1822V574.87h4.063c2.708,0,4.345,1.369,4.345,3.631a3.288,3.288,0,0,1-2.292,3.289l2.471,3.5Zm-.045-6.786c0-1.488-1-2.336-2.9-2.336h-2.53v4.688h2.53c1.9,0,2.9-.862,2.9-2.351Z" transform="translate(-1697.82 -535.689)" fill="#fff"/><path d="M1968.28,578.458a5.54,5.54,0,1,1,5.551,5.328A5.294,5.294,0,0,1,1968.28,578.458Zm9.584,0a4.048,4.048,0,1,0-4.033,4A3.911,3.911,0,0,0,1977.864,578.458Z" transform="translate(-1834.13 -534.068)" fill="#fff"/><path d="M2159.205,574.87l-3.482,10.418h-1.563l-2.843-8.319-2.842,8.319h-1.593L2143.4,574.87h1.534l2.813,8.468,2.93-8.468h1.369l2.872,8.513,2.872-8.513Z" transform="translate(-1997.315 -535.689)" fill="#fff"/><path d="M2445.472,576.165H2441.9V574.87h8.617v1.295h-3.571v9.123h-1.473Z" transform="translate(-2275.47 -535.689)" fill="#fff"/><path d="M2577.51,578.458a5.54,5.54,0,1,1,5.55,5.328A5.294,5.294,0,0,1,2577.51,578.458Zm9.584,0a4.049,4.049,0,1,0-4.03,4A3.912,3.912,0,0,0,2587.094,578.458Z" transform="translate(-2401.838 -534.068)" fill="#fff"/><path d="M2769.033,578.36h1.431v4.061a6.157,6.157,0,0,1-3.943,1.324,5.333,5.333,0,1,1,.029-10.655,5.22,5.22,0,0,1,4,1.607l-.926.926a4.128,4.128,0,0,0-3.021-1.206,4.006,4.006,0,1,0-.015,8.007,4.408,4.408,0,0,0,2.441-.67Z" transform="translate(-2572.794 -534.031)" fill="#fff"/><path d="M2949.556,583.993v1.3H2942V574.87h7.352v1.295h-5.861v3.2h5.224v1.265h-5.224V584Z" transform="translate(-2741.486 -535.689)" fill="#fff"/><path d="M3069.771,576.165H3066.2V574.87h8.617v1.295h-3.572v9.123h-1.474Z" transform="translate(-2857.221 -535.689)" fill="#fff"/><path d="M3225.352,574.87v10.418h-1.491v-4.643h-5.983v4.643h-1.488V574.87h1.488v4.48h5.983v-4.48Z" transform="translate(-2997.175 -535.689)" fill="#fff"/><path d="M3401.3,583.993v1.3h-7.56V574.87h7.352v1.295h-5.861v3.2h5.224v1.265h-5.224V584Z" transform="translate(-3162.438 -535.689)" fill="#fff"/><path d="M3546.968,585.288l-2.249-3.2c-.208.015-.432.029-.655.029h-2.574v3.17H3540V574.87h4.063c2.708,0,4.346,1.369,4.346,3.631a3.287,3.287,0,0,1-2.292,3.289l2.472,3.5Zm-.044-6.786c0-1.488-1-2.336-2.9-2.336h-2.53v4.688h2.53c1.908,0,2.9-.862,2.9-2.351Z" transform="translate(-3298.729 -535.689)" fill="#fff"/><path d="M986.45,487.341q22.82-.212,45.64-.265l11.411-.033,11.41-.024,22.82-.019,22.82.018,11.41.024,11.411.033q22.82.075,45.64.266-22.82.213-45.64.266l-11.411.033-11.41.025-22.82.018-22.82-.019-11.41-.024-11.411-.033Q1009.27,487.528,986.45,487.341Z" transform="translate(-919.218 -453.808)" fill="#fff"/><path d="M1005.6,10.312h.818v6.619h-.818a3.884,3.884,0,0,0-1.077-2.181,5.581,5.581,0,0,0-2.763-.441h-6.812v9.75a1.891,1.891,0,0,0,.456,1.44,2.3,2.3,0,0,0,1.557.418h4.8a15.128,15.128,0,0,0,3.558-.279,3.463,3.463,0,0,0,1.662-1.034,9.866,9.866,0,0,0,1.452-2.454h.818l-1.264,5.086H988.21v-.783a2.8,2.8,0,0,0,2.481-.941,6.338,6.338,0,0,0,.632-3.336V5.137a6.326,6.326,0,0,0-.655-3.417A2.819,2.819,0,0,0,988.21.79V0h19.782V4.552h-.515a4.6,4.6,0,0,0-1.206-2.59q-.783-.639-3.408-.639h-7.913V12.983h7.68a3.1,3.1,0,0,0,2.142-.558A3.863,3.863,0,0,0,1005.6,10.312Z" transform="translate(-920.858)" fill="#fff"/><path d="M1335.714,145.85v3.368q2.973-3.368,6.134-3.368a5.516,5.516,0,0,1,4.1,1.663,5.966,5.966,0,0,1,1.636,4.384V159.5a3.253,3.253,0,0,0,.585,2.3,3.417,3.417,0,0,0,2.294.558v.789H1341.4v-.789a4.341,4.341,0,0,0,2.306-.431,1.9,1.9,0,0,0,.62-1.663v-8.816a3.768,3.768,0,0,0-1.065-2.815,3.722,3.722,0,0,0-2.726-1.047q-2.385,0-4.823,3.3v8.239a4.238,4.238,0,0,0,.545,2.664,3.256,3.256,0,0,0,2.287.57v.789H1329.6v-.789q1.944,0,2.385-.617a5.1,5.1,0,0,0,.445-2.621V149.62a2.683,2.683,0,0,0-.538-1.992,3.732,3.732,0,0,0-2.295-.477v-.791l5.291-.51Z" transform="translate(-1238.98 -135.909)" fill="#fff"/><path d="M1657.914,145.85v3.368q2.972-3.368,6.134-3.368a5.514,5.514,0,0,1,4.1,1.663,5.982,5.982,0,0,1,1.639,4.384V159.5a3.255,3.255,0,0,0,.585,2.3,3.417,3.417,0,0,0,2.295.558v.789H1663.6v-.789a4.341,4.341,0,0,0,2.307-.431,1.9,1.9,0,0,0,.62-1.663v-8.816a3.769,3.769,0,0,0-1.065-2.815,3.723,3.723,0,0,0-2.726-1.047q-2.385,0-4.822,3.3v8.239a4.239,4.239,0,0,0,.545,2.664,3.256,3.256,0,0,0,2.287.57v.789H1651.8v-.789q1.944,0,2.385-.617a5.1,5.1,0,0,0,.445-2.621V149.62a2.683,2.683,0,0,0-.538-1.992,3.732,3.732,0,0,0-2.3-.477v-.791l5.291-.51Z" transform="translate(-1539.22 -135.909)" fill="#fff"/><path d="M1913.683,0V.836q-3.024,0-4.992,5.3l-8.1,21.483h-.778l-8.5-22.11a11.726,11.726,0,0,0-2.062-3.867A3.7,3.7,0,0,0,1886.76.79V0h9.973V.79q-2.4,0-2.4,1.834a3.78,3.78,0,0,0,.3,1.371l6.724,17.584L1907.735,4.6a5.633,5.633,0,0,0,.4-1.882q0-1.928-2.454-1.928V0Z" transform="translate(-1758.166)" fill="#fff"/><path d="M2296.352,26.763h.818V40.949a2.252,2.252,0,0,0,.608,1.861,3.854,3.854,0,0,0,2.224.466v.789h-9.292v-.789a4.858,4.858,0,0,0,2.622-.455,2.308,2.308,0,0,0,.585-1.875V30.579a2.772,2.772,0,0,0-.538-2.026,4.538,4.538,0,0,0-2.668-.489v-.79Zm-.75-8.71a2,2,0,0,1,1.466.592,1.966,1.966,0,0,1,.6,1.452,2.022,2.022,0,0,1-.609,1.475,1.97,1.97,0,0,1-1.451.613,2.077,2.077,0,0,1-1.5-.613,1.986,1.986,0,0,1-.631-1.475,1.927,1.927,0,0,1,.62-1.452,2.106,2.106,0,0,1,1.509-.592Z" transform="translate(-2134.585 -16.822)" fill="#fff"/><path d="M2480.038,145.775v5.18h-.96a5.028,5.028,0,0,0-1.4-3.1,3.9,3.9,0,0,0-2.833-1.149,3.132,3.132,0,0,0-2.037.627,2.044,2.044,0,0,0-.772,1.672,2.58,2.58,0,0,0,.713,1.8,10.525,10.525,0,0,0,3.1,1.87,11.1,11.1,0,0,1,4.085,2.671,4.835,4.835,0,0,1,.994,3.067,4.929,4.929,0,0,1-1.591,3.658,5.227,5.227,0,0,1-3.77,1.544,7.911,7.911,0,0,1-2.973-.813,4.468,4.468,0,0,0-1.334-.441.984.984,0,0,0-.75.325,1.336,1.336,0,0,0-.351.813h-.818v-5.739h.818a6.186,6.186,0,0,0,1.966,3.594,5.146,5.146,0,0,0,3.488,1.33,2.91,2.91,0,0,0,2.119-.837,2.783,2.783,0,0,0,.855-2.071,2.975,2.975,0,0,0-.787-2.059,10.753,10.753,0,0,0-3.408-2.014,11.073,11.073,0,0,1-3.885-2.4,4.043,4.043,0,0,1-.935-2.7,4.505,4.505,0,0,1,1.533-3.408,5.154,5.154,0,0,1,3.64-1.431,5.711,5.711,0,0,1,2.131.464,3.8,3.8,0,0,0,1.334.325,1.073,1.073,0,0,0,1.007-.789Z" transform="translate(-2301.04 -135.835)" fill="#fff"/><path d="M2677.641,26.763h.818V40.949a2.253,2.253,0,0,0,.608,1.861,3.856,3.856,0,0,0,2.224.466v.789H2672v-.789a4.859,4.859,0,0,0,2.622-.455,2.309,2.309,0,0,0,.585-1.875V30.579a2.772,2.772,0,0,0-.538-2.026,4.539,4.539,0,0,0-2.669-.489v-.79Zm-.75-8.71a2,2,0,0,1,1.463.592,1.967,1.967,0,0,1,.6,1.452,2.022,2.022,0,0,1-.609,1.475,1.969,1.969,0,0,1-1.451.613,2.076,2.076,0,0,1-1.5-.613,1.986,1.986,0,0,1-.632-1.475,1.929,1.929,0,0,1,.62-1.452,2.107,2.107,0,0,1,1.512-.592Z" transform="translate(-2489.888 -16.822)" fill="#fff"/><path d="M2866.411,154.751a8.427,8.427,0,0,1-2.658,6.352,9.934,9.934,0,0,1-13.275,0,8.99,8.99,0,0,1-.013-12.751,9.964,9.964,0,0,1,13.3,0A8.509,8.509,0,0,1,2866.411,154.751Zm-3.535.012a9.951,9.951,0,0,0-1.545-5.814,5.154,5.154,0,0,0-8.428-.046,11.8,11.8,0,0,0-.012,11.655,5.193,5.193,0,0,0,8.451-.024,9.855,9.855,0,0,0,1.534-5.767Z" transform="translate(-2653.725 -135.872)" fill="#fff"/><path d="M3158.264,145.85v3.368q2.973-3.368,6.135-3.368a5.516,5.516,0,0,1,4.1,1.663,5.976,5.976,0,0,1,1.639,4.384V159.5a3.255,3.255,0,0,0,.585,2.3,3.417,3.417,0,0,0,2.3.558v.789h-9.061v-.789a4.342,4.342,0,0,0,2.307-.431,1.9,1.9,0,0,0,.62-1.663v-8.816a3.769,3.769,0,0,0-1.066-2.815,3.721,3.721,0,0,0-2.726-1.047q-2.386,0-4.822,3.3v8.239a4.24,4.24,0,0,0,.545,2.664,3.256,3.256,0,0,0,2.287.57v.789h-8.945v-.789q1.943,0,2.385-.617a5.085,5.085,0,0,0,.445-2.621V149.62a2.681,2.681,0,0,0-.539-1.992,3.731,3.731,0,0,0-2.295-.477v-.791l5.291-.51Z" transform="translate(-2937.313 -135.909)" fill="#fff"/><path d="M3505.728,145.775v5.18h-.96a5.028,5.028,0,0,0-1.4-3.1,3.9,3.9,0,0,0-2.833-1.149,3.133,3.133,0,0,0-2.037.627,2.044,2.044,0,0,0-.773,1.672,2.579,2.579,0,0,0,.714,1.8,10.519,10.519,0,0,0,3.1,1.87,11.081,11.081,0,0,1,4.085,2.671,4.847,4.847,0,0,1,1,3.067,4.929,4.929,0,0,1-1.592,3.658,5.227,5.227,0,0,1-3.769,1.544,7.914,7.914,0,0,1-2.973-.813,4.458,4.458,0,0,0-1.335-.441.984.984,0,0,0-.75.325,1.339,1.339,0,0,0-.352.813h-.818v-5.738h.818a6.193,6.193,0,0,0,1.967,3.594,5.145,5.145,0,0,0,3.488,1.33,2.909,2.909,0,0,0,2.118-.837,2.783,2.783,0,0,0,.855-2.071,2.975,2.975,0,0,0-.787-2.059,10.769,10.769,0,0,0-3.408-2.014,11.054,11.054,0,0,1-3.885-2.4,4.049,4.049,0,0,1-.935-2.7,4.507,4.507,0,0,1,1.533-3.408,5.154,5.154,0,0,1,3.641-1.431,5.71,5.71,0,0,1,2.13.464,3.8,3.8,0,0,0,1.334.325,1.077,1.077,0,0,0,1.007-.789Z" transform="translate(-3256.823 -135.835)" fill="#fff"/></g></g></svg>