<svg xmlns="http://www.w3.org/2000/svg" width="22.715" height="19.881" viewBox="0 0 22.715 19.881"><g transform="translate(0 0.002)"><path d="M0,5.647C.072,5.271.124,4.89.22,4.52A6.042,6.042,0,0,1,6.6.022a5.9,5.9,0,0,1,3.731,1.755c.341.337.685.671,1.03,1.008.244-.238.506-.474.747-.731A6.322,6.322,0,0,1,14.741.312,6.037,6.037,0,0,1,22.575,4.85a6,6,0,0,1-1.669,5.643q-4.445,4.541-8.922,9.049a.747.747,0,0,1-1.249,0q-4.471-4.53-8.94-9.062A6.057,6.057,0,0,1,.039,6.769C.032,6.7.013,6.641,0,6.578V5.646ZM11.356,18.139c.041-.036.076-.061.106-.091,2.836-2.873,5.681-5.736,8.5-8.624a4.482,4.482,0,0,0,1.268-4.012,4.45,4.45,0,0,0-3.185-3.764A4.434,4.434,0,0,0,13.31,2.861c-.466.464-.925.937-1.388,1.4a.732.732,0,0,1-1.129,0c-.516-.519-1.023-1.047-1.547-1.558a4.571,4.571,0,0,0-5.055-.893A4.75,4.75,0,0,0,2.839,9.521q4.173,4.232,8.352,8.46c.051.052.1.1.165.158Z" transform="translate(0 0)" fill="#fff"/></g></svg>