<svg xmlns="http://www.w3.org/2000/svg" width="15.767" height="15.795" viewBox="0 0 15.767 15.795"><path d="M15.75,8.062a.814.814,0,0,1-.617.6,1.37,1.37,0,0,1-.26.018H8.638v.188c0,1.989-.008,3.979.005,5.967a.883.883,0,0,1-.621.971H7.714a.819.819,0,0,1-.6-.618,1.282,1.282,0,0,1-.017-.245q0-3.03,0-6.06v-.2H.8A.771.771,0,1,1,.754,7.138c.7,0,1.4,0,2.093,0H7.1V6.949c0-1.989.008-3.979-.006-5.968A.883.883,0,0,1,7.713.01h.308a.812.812,0,0,1,.6.618,1.374,1.374,0,0,1,.018.26q0,3.022,0,6.045v.2h.188c1.986,0,3.971.008,5.956-.006a.88.88,0,0,1,.969.623v.309Z" transform="translate(0.016 -0.01)" fill="#fff"/></svg>