<svg xmlns="http://www.w3.org/2000/svg" width="34.461" height="34.461" viewBox="0 0 34.461 34.461"><g transform="translate(0)"><rect width="33.62" height="34.461" rx="16.81" transform="translate(0.515)"/><rect width="28.577" height="29.418" rx="14.289" transform="translate(3.036 2.522)" fill="#efeff4"/><path d="M31.976,0H2.486A2.485,2.485,0,0,0,0,2.485v29.49a2.485,2.485,0,0,0,2.485,2.485h29.49a2.485,2.485,0,0,0,2.485-2.485V2.485A2.485,2.485,0,0,0,31.976,0ZM25.1,13.435q.011.254.011.511A11.176,11.176,0,0,1,13.857,25.2h0a11.2,11.2,0,0,1-6.062-1.777,8.044,8.044,0,0,0,.943.055,7.936,7.936,0,0,0,4.912-1.693,3.959,3.959,0,0,1-3.695-2.747,3.942,3.942,0,0,0,1.786-.068,3.956,3.956,0,0,1-3.173-3.877c0-.018,0-.034,0-.05a3.928,3.928,0,0,0,1.791.495,3.958,3.958,0,0,1-1.224-5.28,11.228,11.228,0,0,0,8.152,4.132,3.957,3.957,0,0,1,6.739-3.607,7.933,7.933,0,0,0,2.511-.96A3.97,3.97,0,0,1,24.8,12.009a7.888,7.888,0,0,0,2.271-.623A8.037,8.037,0,0,1,25.1,13.435Zm0,0" transform="translate(0 0)" fill="#4d4d4d"/></g></svg>