<svg xmlns="http://www.w3.org/2000/svg" width="242.584" height="48.273" viewBox="0 0 242.584 48.273"><path d="M78.8.14V1C85.223,2.382,88.937,6.1,89.467,11.86H90.4c-.032-4.375-.05-8.572-.3-11.72C86.783-.041,82.987-.03,78.8.14Z" transform="translate(-73.586 -0.008)" fill="#fff"/><path d="M78.8,516.188v-.59c6.423-1.384,11.36-6.321,11.892-12.088l1.067.081-.77,12.629Z" transform="translate(-73.586 -470.192)" fill="#fff"/><path d="M269,3.014c5.8.678,3.242,2.814,21.477,46.94l8.515-18.574L298,31.094c-4.689,6.8-5.079,6.669-7.827.013l-9.336-23.56c-1.658-3.225-.132-4.632,4.025-4.533V2H269Z" transform="translate(-251.2 -1.868)" fill="#fff"/><path d="M263.77,504.74c-.141,3.987-.384,8.171-.77,12.629" transform="translate(-245.597 -471.341)" fill="#fff"/><path d="M90.989,695.132q-6.008.159-12.189-.032" transform="translate(-73.586 -649.104)" fill="#fff"/><path d="M0,226.381l.044.926c3.532,1.191,6.145,3.407,6.551,8.088H7.754L7.571,218.34l-.993.007C6.436,222.282,4.21,225.164,0,226.381Z" transform="translate(0 -203.892)" fill="#fff"/><path d="M710,2a7.125,7.125,0,0,1,0,.938c6.683-.224,6.683,6.289,4.457,13.517h.9C718.284,9.9,721.179,3.2,725.641,2.91V2.076Z" transform="translate(-663.018 -1.868)" fill="#fff"/><path d="M997.24,574.87h1.445v8.858h5.476v1.257H997.24Z" transform="translate(-931.251 -536.83)" fill="#fff"/><path d="M1134.28,583.728v1.257h-7.34V574.87h7.138v1.257h-5.691v3.11h5.071v1.228h-5.071v3.266Z" transform="translate(-1052.369 -536.83)" fill="#fff"/><path d="M1254.658,576.127h-3.468V574.87h8.366v1.257h-3.468v8.857h-1.43Z" transform="translate(-1168.397 -536.83)" fill="#fff"/><path d="M1396.807,565.373a2.817,2.817,0,0,1-.231,1.026l-.693,2.023h-.908l.535-2.153a.919.919,0,0,1-.607-.9.945.945,0,0,1,.968-.983A.928.928,0,0,1,1396.807,565.373Z" transform="translate(-1302.599 -527.044)" fill="#fff"/><path d="M1445.09,582.242l.535-1.125a5.2,5.2,0,0,0,3.338,1.171c1.749,0,2.5-.679,2.5-1.56,0-2.471-6.127-.911-6.127-4.667,0-1.56,1.214-2.89,3.872-2.89a5.952,5.952,0,0,1,3.251.9l-.476,1.156a5.228,5.228,0,0,0-2.775-.823c-1.721,0-2.456.722-2.456,1.6,0,2.471,6.126.926,6.126,4.639,0,1.546-1.242,2.875-3.915,2.875A6.02,6.02,0,0,1,1445.09,582.242Z" transform="translate(-1349.467 -535.243)" fill="#fff"/><path d="M1648.829,578.207h1.39v3.943a5.98,5.98,0,0,1-3.829,1.286,5.178,5.178,0,1,1,.029-10.345,5.068,5.068,0,0,1,3.887,1.56l-.9.9a4.009,4.009,0,0,0-2.933-1.171,3.889,3.889,0,1,0-.014,7.774,4.28,4.28,0,0,0,2.37-.65Z" transform="translate(-1532.413 -535.168)" fill="#fff"/><path d="M1828.761,584.984l-2.184-3.106c-.2.015-.419.028-.636.028h-2.5v3.078H1822V574.87h3.944c2.63,0,4.219,1.329,4.219,3.526a3.192,3.192,0,0,1-2.225,3.193l2.4,3.4Zm-.044-6.589c0-1.444-.968-2.268-2.818-2.268h-2.456v4.551h2.456c1.849,0,2.818-.837,2.818-2.283Z" transform="translate(-1701.436 -536.83)" fill="#fff"/><path d="M1968.28,578.3a5.378,5.378,0,1,1,5.389,5.173A5.14,5.14,0,0,1,1968.28,578.3Zm9.3,0a3.931,3.931,0,1,0-3.916,3.884A3.8,3.8,0,0,0,1977.585,578.3Z" transform="translate(-1838.037 -535.205)" fill="#fff"/><path d="M2158.745,574.87l-3.381,10.114h-1.517l-2.76-8.077-2.76,8.077h-1.546L2143.4,574.87h1.489l2.731,8.222,2.845-8.222h1.33l2.789,8.265,2.789-8.265Z" transform="translate(-2001.569 -536.83)" fill="#fff"/><path d="M2445.368,576.127H2441.9V574.87h8.366v1.257H2446.8v8.857h-1.43Z" transform="translate(-2280.316 -536.83)" fill="#fff"/><path d="M2577.51,578.3a5.378,5.378,0,1,1,5.388,5.173A5.14,5.14,0,0,1,2577.51,578.3Zm9.3,0a3.931,3.931,0,1,0-3.913,3.884A3.8,3.8,0,0,0,2586.815,578.3Z" transform="translate(-2406.953 -535.205)" fill="#fff"/><path d="M2768.8,578.207h1.39v3.943a5.978,5.978,0,0,1-3.829,1.286,5.178,5.178,0,1,1,.028-10.345,5.068,5.068,0,0,1,3.887,1.56l-.9.9a4.007,4.007,0,0,0-2.933-1.171,3.889,3.889,0,1,0-.014,7.774,4.279,4.279,0,0,0,2.37-.65Z" transform="translate(-2578.274 -535.168)" fill="#fff"/><path d="M2949.336,583.728v1.257H2942V574.87h7.138v1.257h-5.691v3.11h5.072v1.228h-5.072v3.266Z" transform="translate(-2747.324 -536.83)" fill="#fff"/><path d="M3069.667,576.127H3066.2V574.87h8.366v1.257H3071.1v8.857h-1.431Z" transform="translate(-2863.306 -536.83)" fill="#fff"/><path d="M3225.091,574.87v10.114h-1.448v-4.508h-5.809v4.508h-1.445V574.87h1.445v4.349h5.809V574.87Z" transform="translate(-3003.558 -536.83)" fill="#fff"/><path d="M3401.08,583.728v1.257h-7.34V574.87h7.138v1.257h-5.691v3.11h5.072v1.228h-5.072v3.266Z" transform="translate(-3169.172 -536.83)" fill="#fff"/><path d="M3546.765,584.984l-2.184-3.106c-.2.015-.419.028-.636.028h-2.5v3.078H3540V574.87h3.945c2.629,0,4.219,1.329,4.219,3.526a3.192,3.192,0,0,1-2.225,3.193l2.4,3.4Zm-.043-6.589c0-1.444-.968-2.268-2.817-2.268h-2.456v4.551h2.456c1.853,0,2.817-.837,2.817-2.283Z" transform="translate(-3305.754 -536.83)" fill="#fff"/><path d="M986.45,487.331q22.155-.206,44.311-.257l11.078-.032,11.078-.023,22.155-.019,22.156.018,11.078.023,11.078.032q22.155.073,44.311.258-22.156.206-44.311.258l-11.078.032-11.078.024-22.156.017-22.155-.019-11.078-.023-11.078-.032Q1008.606,487.513,986.45,487.331Z" transform="translate(-921.175 -454.775)" fill="#fff"/><path d="M1005.1,10.012h.794v6.427h-.794a3.77,3.77,0,0,0-1.046-2.117,5.419,5.419,0,0,0-2.683-.428h-6.614v9.466a1.835,1.835,0,0,0,.443,1.4,2.228,2.228,0,0,0,1.512.406h4.659a14.688,14.688,0,0,0,3.455-.271,3.363,3.363,0,0,0,1.614-1,9.579,9.579,0,0,0,1.409-2.382h.794l-1.228,4.938h-19.2v-.76a2.714,2.714,0,0,0,2.409-.914,6.154,6.154,0,0,0,.613-3.239V4.987A6.143,6.143,0,0,0,990.6,1.67a2.737,2.737,0,0,0-2.387-.9V0h19.206V4.42h-.5a4.467,4.467,0,0,0-1.171-2.515q-.76-.621-3.309-.62h-7.682V12.6h7.456a3.011,3.011,0,0,0,2.08-.541A3.751,3.751,0,0,0,1005.1,10.012Z" transform="translate(-922.819)" fill="#fff"/><path d="M1335.536,145.85v3.27q2.886-3.27,5.955-3.27a5.355,5.355,0,0,1,3.978,1.615,5.792,5.792,0,0,1,1.588,4.256V159.1a3.158,3.158,0,0,0,.568,2.235,3.317,3.317,0,0,0,2.227.542v.766h-8.793v-.766a4.214,4.214,0,0,0,2.239-.418,1.843,1.843,0,0,0,.6-1.615V151.29a3.659,3.659,0,0,0-1.034-2.733,3.614,3.614,0,0,0-2.647-1.016q-2.316,0-4.682,3.2v8a4.115,4.115,0,0,0,.529,2.587,3.161,3.161,0,0,0,2.221.554v.766H1329.6v-.766q1.887,0,2.316-.6a4.949,4.949,0,0,0,.432-2.544V149.51a2.6,2.6,0,0,0-.523-1.934,3.623,3.623,0,0,0-2.228-.463v-.768l5.137-.5Z" transform="translate(-1241.619 -136.199)" fill="#fff"/><path d="M1657.736,145.85v3.27q2.886-3.27,5.955-3.27a5.354,5.354,0,0,1,3.978,1.615,5.808,5.808,0,0,1,1.591,4.256V159.1a3.16,3.16,0,0,0,.568,2.235,3.317,3.317,0,0,0,2.228.542v.766h-8.795v-.766a4.215,4.215,0,0,0,2.239-.418,1.845,1.845,0,0,0,.6-1.615V151.29a3.659,3.659,0,0,0-1.034-2.733,3.615,3.615,0,0,0-2.647-1.016q-2.316,0-4.682,3.2v8a4.115,4.115,0,0,0,.529,2.587,3.162,3.162,0,0,0,2.221.554v.766H1651.8v-.766q1.887,0,2.316-.6a4.95,4.95,0,0,0,.432-2.544V149.51a2.6,2.6,0,0,0-.523-1.934,3.623,3.623,0,0,0-2.228-.463v-.768l5.137-.5Z" transform="translate(-1542.498 -136.199)" fill="#fff"/><path d="M1912.9,0V.812q-2.936,0-4.846,5.141l-7.867,20.858h-.756l-8.257-21.467a11.387,11.387,0,0,0-2-3.755,3.59,3.59,0,0,0-2.411-.823V0h9.683V.767q-2.334,0-2.334,1.781a3.67,3.67,0,0,0,.3,1.331l6.528,17.072,6.192-16.482a5.471,5.471,0,0,0,.387-1.827q0-1.872-2.382-1.872V0Z" transform="translate(-1761.911)" fill="#fff"/><path d="M2296.188,26.509h.794V40.283a2.187,2.187,0,0,0,.591,1.806,3.742,3.742,0,0,0,2.159.452v.766h-9.022v-.766a4.716,4.716,0,0,0,2.545-.441,2.24,2.24,0,0,0,.568-1.82V30.214a2.692,2.692,0,0,0-.522-1.967,4.407,4.407,0,0,0-2.591-.475V27Zm-.728-8.456a1.941,1.941,0,0,1,1.423.575,1.908,1.908,0,0,1,.579,1.409,1.964,1.964,0,0,1-.591,1.432,1.913,1.913,0,0,1-1.409.6,2.016,2.016,0,0,1-1.456-.6,1.929,1.929,0,0,1-.613-1.432,1.871,1.871,0,0,1,.6-1.409,2.045,2.045,0,0,1,1.465-.575Z" transform="translate(-2139.131 -16.858)" fill="#fff"/><path d="M2479.726,145.775V150.8h-.932a4.882,4.882,0,0,0-1.364-3.011,3.783,3.783,0,0,0-2.75-1.116,3.041,3.041,0,0,0-1.978.609,1.985,1.985,0,0,0-.75,1.623,2.5,2.5,0,0,0,.693,1.748,10.216,10.216,0,0,0,3.012,1.815,10.774,10.774,0,0,1,3.966,2.593,4.694,4.694,0,0,1,.966,2.978,4.786,4.786,0,0,1-1.545,3.551,5.075,5.075,0,0,1-3.66,1.5,7.681,7.681,0,0,1-2.886-.789,4.342,4.342,0,0,0-1.3-.428.955.955,0,0,0-.728.316,1.3,1.3,0,0,0-.341.789h-.794V157.41h.794a6,6,0,0,0,1.909,3.489,5,5,0,0,0,3.387,1.291,2.826,2.826,0,0,0,2.058-.813,2.7,2.7,0,0,0,.83-2.01,2.888,2.888,0,0,0-.764-2,10.439,10.439,0,0,0-3.309-1.955,10.751,10.751,0,0,1-3.772-2.327,3.924,3.924,0,0,1-.907-2.618,4.374,4.374,0,0,1,1.489-3.309,5.005,5.005,0,0,1,3.534-1.39,5.546,5.546,0,0,1,2.069.451,3.685,3.685,0,0,0,1.3.316,1.041,1.041,0,0,0,.977-.766Z" transform="translate(-2305.94 -136.124)" fill="#fff"/><path d="M2677.477,26.509h.794V40.282a2.187,2.187,0,0,0,.591,1.806,3.743,3.743,0,0,0,2.159.452v.766H2672v-.766a4.717,4.717,0,0,0,2.545-.441,2.242,2.242,0,0,0,.568-1.82V30.214a2.691,2.691,0,0,0-.523-1.967,4.406,4.406,0,0,0-2.591-.475V27Zm-.728-8.456a1.942,1.942,0,0,1,1.421.575,1.908,1.908,0,0,1,.579,1.409,1.964,1.964,0,0,1-.591,1.432,1.913,1.913,0,0,1-1.409.6,2.016,2.016,0,0,1-1.456-.6,1.93,1.93,0,0,1-.614-1.432,1.874,1.874,0,0,1,.6-1.409,2.046,2.046,0,0,1,1.468-.575Z" transform="translate(-2495.19 -16.858)" fill="#fff"/><path d="M2865.87,154.491a8.182,8.182,0,0,1-2.581,6.167,9.644,9.644,0,0,1-12.888,0,8.728,8.728,0,0,1-.013-12.379,9.674,9.674,0,0,1,12.911,0A8.262,8.262,0,0,1,2865.87,154.491Zm-3.432.011a9.662,9.662,0,0,0-1.5-5.645,5,5,0,0,0-8.183-.045,11.455,11.455,0,0,0-.012,11.315,5.042,5.042,0,0,0,8.205-.023,9.567,9.567,0,0,0,1.489-5.6Z" transform="translate(-2659.377 -136.162)" fill="#fff"/><path d="M3158.086,145.85v3.27q2.886-3.27,5.956-3.27a5.355,5.355,0,0,1,3.977,1.615,5.8,5.8,0,0,1,1.591,4.256V159.1a3.161,3.161,0,0,0,.568,2.235,3.318,3.318,0,0,0,2.228.542v.766h-8.8v-.766a4.216,4.216,0,0,0,2.24-.418,1.845,1.845,0,0,0,.6-1.615V151.29a3.659,3.659,0,0,0-1.035-2.733,3.612,3.612,0,0,0-2.646-1.016q-2.317,0-4.682,3.2v8a4.118,4.118,0,0,0,.529,2.587,3.161,3.161,0,0,0,2.221.554v.766h-8.684v-.766q1.886,0,2.316-.6a4.934,4.934,0,0,0,.432-2.544V149.51a2.6,2.6,0,0,0-.523-1.934,3.623,3.623,0,0,0-2.228-.463v-.768l5.137-.5Z" transform="translate(-2943.568 -136.199)" fill="#fff"/><path d="M3505.417,145.775V150.8h-.932a4.88,4.88,0,0,0-1.364-3.011,3.783,3.783,0,0,0-2.75-1.116,3.041,3.041,0,0,0-1.977.609,1.984,1.984,0,0,0-.75,1.623,2.5,2.5,0,0,0,.693,1.747,10.218,10.218,0,0,0,3.011,1.815,10.761,10.761,0,0,1,3.966,2.593,4.707,4.707,0,0,1,.966,2.978,4.786,4.786,0,0,1-1.546,3.551,5.075,5.075,0,0,1-3.659,1.5,7.683,7.683,0,0,1-2.886-.789,4.328,4.328,0,0,0-1.3-.428.956.956,0,0,0-.728.316,1.3,1.3,0,0,0-.341.789h-.794V157.41h.794a6.014,6.014,0,0,0,1.91,3.489,5,5,0,0,0,3.387,1.291,2.824,2.824,0,0,0,2.057-.813,2.7,2.7,0,0,0,.83-2.01,2.888,2.888,0,0,0-.764-2,10.453,10.453,0,0,0-3.309-1.955,10.733,10.733,0,0,1-3.771-2.327,3.931,3.931,0,0,1-.907-2.618,4.376,4.376,0,0,1,1.488-3.309,5,5,0,0,1,3.535-1.39,5.544,5.544,0,0,1,2.068.451,3.69,3.69,0,0,0,1.3.316,1.046,1.046,0,0,0,.977-.766Z" transform="translate(-3263.76 -136.124)" fill="#fff"/></svg>